<svg width="36" height="36" viewBox="0 0 36 36" fill="none" xmlns="http://www.w3.org/2000/svg">
<path d="M18.6842 7.10518C18.4588 7.10518 18.2898 6.99247 18.1771 6.87976C18.0643 6.7107 18.008 6.48528 18.0643 6.31622L18.7406 3.83661C18.797 3.61119 18.966 3.44213 19.1351 3.38577C19.3605 3.32942 19.5859 3.32942 19.755 3.44213L23.418 5.86538C23.6435 6.03444 23.7562 6.31622 23.6998 6.59799C23.6435 6.87976 23.3617 7.04883 23.0799 7.04883L18.6842 7.10518C18.7406 7.10518 18.7406 7.10518 18.6842 7.10518Z" fill="#333333"/>
<path d="M18.6842 7.10518C18.4588 7.10518 18.2898 6.99247 18.1771 6.87976C18.0643 6.7107 18.008 6.48528 18.0643 6.31622L18.7406 3.83661C18.797 3.61119 18.966 3.44213 19.1351 3.38577C19.3605 3.32942 19.5859 3.32942 19.755 3.44213L23.418 5.86538C23.6435 6.03444 23.7562 6.31622 23.6998 6.59799C23.6435 6.87976 23.3617 7.04883 23.0799 7.04883L18.6842 7.10518ZM18.6842 7.10518C18.7406 7.10518 18.7406 7.10518 18.6842 7.10518Z" stroke="#333333" stroke-width="0.7" stroke-miterlimit="10"/>
<path d="M2.62312 18.7143C2.28499 18.7143 2.05957 18.4325 2.05957 18.0944C2.56676 10.3738 8.87849 4.45651 16.6554 4.45651C18.3461 4.45651 19.9804 4.73829 21.5583 5.30183C21.8401 5.41454 22.0091 5.75267 21.8964 6.03444C21.7837 6.31622 21.4456 6.42893 21.1638 6.37257C19.6986 5.86538 18.2334 5.58361 16.6554 5.58361C9.55475 5.58361 3.6375 11.1627 3.18666 18.2071C3.18666 18.4888 2.90489 18.7143 2.62312 18.7143Z" fill="#333333" stroke="#333333" stroke-width="0.7" stroke-miterlimit="10"/>
<path d="M25.6722 7.55603C25.8413 7.27426 26.1794 7.2179 26.4612 7.38697C32.8857 11.6699 34.9144 20.0668 31.0259 26.8293C30.1806 28.2946 29.1099 29.5907 27.8701 30.6615C27.6447 30.8869 27.2502 30.8305 27.0811 30.5488C26.9121 30.3233 26.912 29.9852 27.1375 29.7598C28.3209 28.7454 29.2789 27.562 30.0679 26.2658C33.6183 20.1231 31.7022 12.1771 25.8413 8.28864C25.5595 8.11958 25.5032 7.78145 25.6722 7.55603Z" fill="#333333" stroke="#333333" stroke-width="0.7" stroke-miterlimit="10"/>
<path d="M27.6446 27.2802C27.7574 27.1111 27.9264 26.9984 28.1518 26.9421C28.3773 26.8857 28.5463 26.9984 28.7154 27.1111L30.5187 28.9145C30.6878 29.0835 30.7442 29.309 30.6878 29.478C30.6314 29.7034 30.5187 29.8725 30.2933 29.9852L26.4048 31.9576C26.1231 32.0703 25.8413 32.014 25.6722 31.8449C25.5032 31.6195 25.4468 31.3377 25.6159 31.0559L27.6446 27.2802Z" fill="#333333" stroke="#333333" stroke-width="0.7" stroke-miterlimit="10"/>
</svg>
