<svg width="36" height="35" viewBox="0 0 36 35" fill="none" xmlns="http://www.w3.org/2000/svg">
<path d="M12.5058 24.995C12.5953 26.338 12.2372 27.681 11.6105 28.7554C10.8942 29.9193 9.8198 30.8147 8.65587 31.3519C9.64074 30.5461 10.357 29.3821 10.6256 28.1287C9.73027 28.5763 9.014 29.2926 8.4768 30.1879C8.56633 29.024 9.10353 27.9496 9.8198 27.0543C8.29773 29.1135 6.23846 30.7251 4.00012 31.8891C5.25359 30.4565 6.32799 28.8449 7.04426 27.1438C6.14893 27.9496 5.34313 28.8449 4.44779 29.6507C4.98499 28.1287 5.43266 26.6066 6.32799 25.2636C7.22333 23.9206 8.65587 22.8462 10.2675 22.7567" stroke="#333333" stroke-width="1.5" stroke-miterlimit="10"/>
<path d="M13.6698 23.0252C19.2209 24.0101 14.1175 28.3972 14.1175 28.3972C14.1175 28.3972 21.4592 27.86 23.429 20.0706" stroke="#333333" stroke-width="1.5" stroke-miterlimit="10"/>
<path d="M34.352 1C10.2675 5.20808 12.3268 22.9357 12.3268 22.9357C12.3268 22.9357 30.1439 24.995 34.352 1Z" stroke="#333333" stroke-width="1.5" stroke-miterlimit="10"/>
<path d="M12.3267 21.5928C11.3419 16.0417 6.95471 21.1451 6.95471 21.1451C6.95471 21.1451 7.49191 13.8034 15.2813 11.8336" stroke="#333333" stroke-width="1.5" stroke-miterlimit="10"/>
<path d="M25.7568 12.9079C27.6358 12.9079 29.159 11.3846 29.159 9.50561C29.159 7.62658 27.6358 6.10333 25.7568 6.10333C23.8777 6.10333 22.3545 7.62658 22.3545 9.50561C22.3545 11.3846 23.8777 12.9079 25.7568 12.9079Z" stroke="#333333" stroke-width="1.5" stroke-miterlimit="10"/>
<path d="M25.7567 11.1172C26.6468 11.1172 27.3684 10.3957 27.3684 9.50562C27.3684 8.61555 26.6468 7.89401 25.7567 7.89401C24.8667 7.89401 24.1451 8.61555 24.1451 9.50562C24.1451 10.3957 24.8667 11.1172 25.7567 11.1172Z" stroke="#333333" stroke-width="1.5" stroke-miterlimit="10"/>
</svg>
