<svg width="36" height="36" viewBox="0 0 36 36" fill="none" xmlns="http://www.w3.org/2000/svg">
<path d="M2.62312 17.7143C2.28499 17.7143 2.05957 17.4325 2.05957 17.0944C2.56676 9.37376 8.87849 3.45651 16.6554 3.45651C18.3461 3.45651 19.9804 3.73829 21.5583 4.30183C21.8401 4.41454 22.0091 4.75267 21.8964 5.03444C21.7837 5.31622 21.4456 5.42893 21.1638 5.37257C19.6986 4.86538 18.2334 4.58361 16.6554 4.58361C9.55475 4.58361 3.6375 10.1627 3.18666 17.2071C3.18666 17.4888 2.90489 17.7143 2.62312 17.7143Z" fill="#333333" stroke="#333333" stroke-width="0.7" stroke-miterlimit="10"/>
<path d="M18.6841 6.10518C18.4587 6.10518 18.2896 5.99247 18.1769 5.87976C18.0642 5.7107 18.0079 5.48528 18.0642 5.31622L18.7405 2.83661C18.7968 2.61119 18.9659 2.44213 19.135 2.38577C19.3604 2.32942 19.5858 2.32942 19.7549 2.44213L23.4179 4.86538C23.6433 5.03444 23.756 5.31622 23.6997 5.59799C23.6433 5.87976 23.3616 6.04883 23.0798 6.04883L18.6841 6.10518C18.7405 6.10518 18.7405 6.10518 18.6841 6.10518Z" fill="#333333"/>
<path d="M18.6841 6.10518C18.4587 6.10518 18.2896 5.99247 18.1769 5.87976C18.0642 5.7107 18.0079 5.48528 18.0642 5.31622L18.7405 2.83661C18.7968 2.61119 18.9659 2.44213 19.135 2.38577C19.3604 2.32942 19.5858 2.32942 19.7549 2.44213L23.4179 4.86538C23.6433 5.03444 23.756 5.31622 23.6997 5.59799C23.6433 5.87976 23.3616 6.04883 23.0798 6.04883L18.6841 6.10518ZM18.6841 6.10518C18.7405 6.10518 18.7405 6.10518 18.6841 6.10518Z" stroke="#333333" stroke-width="0.7" stroke-miterlimit="10"/>
<path d="M25.6722 6.55603C25.8413 6.27426 26.1794 6.2179 26.4612 6.38697C32.8857 10.6699 34.9144 19.0668 31.0259 25.8293C30.1806 27.2946 29.1099 28.5907 27.8701 29.6615C27.6447 29.8869 27.2502 29.8305 27.0811 29.5488C26.9121 29.3233 26.912 28.9852 27.1375 28.7598C28.3209 27.7454 29.2789 26.562 30.0679 25.2658C33.6183 19.1231 31.7022 11.1771 25.8413 7.28864C25.5595 7.11958 25.5032 6.78145 25.6722 6.55603Z" fill="#333333" stroke="#333333" stroke-width="0.7" stroke-miterlimit="10"/>
<path d="M27.6446 26.2802C27.7574 26.1111 27.9264 25.9984 28.1518 25.9421C28.3773 25.8857 28.5463 25.9984 28.7154 26.1111L30.5187 27.9145C30.6878 28.0835 30.7442 28.309 30.6878 28.478C30.6314 28.7034 30.5187 28.8725 30.2933 28.9852L26.4048 30.9576C26.1231 31.0703 25.8413 31.014 25.6722 30.8449C25.5032 30.6195 25.4468 30.3377 25.6159 30.0559L27.6446 26.2802Z" fill="#333333" stroke="#333333" stroke-width="0.7" stroke-miterlimit="10"/>
<path d="M23.7563 32.0284C23.9253 32.3102 23.8126 32.6483 23.5309 32.8174C16.6556 36.3114 8.31508 33.8881 4.37025 27.1256C3.52493 25.6603 2.90503 24.1388 2.62325 22.5045C2.5669 22.1663 2.79232 21.8846 3.13045 21.8282C3.41222 21.7719 3.69399 21.9973 3.75035 22.279C4.03212 23.8006 4.59567 25.2095 5.38464 26.562C8.93498 32.6483 16.7683 34.9589 23.08 31.803C23.3054 31.6903 23.6436 31.803 23.7563 32.0284Z" fill="#333333" stroke="#333333" stroke-width="0.7" stroke-miterlimit="10"/>
<path d="M5.66635 24.026C5.77906 24.1951 5.77906 24.4205 5.72271 24.5896C5.66635 24.7586 5.49729 24.9277 5.32822 24.984L2.84862 25.6603C2.6232 25.7167 2.39778 25.6603 2.22871 25.5476C2.11601 25.3785 2.0033 25.1531 2.0033 24.9277L2.22871 20.5884C2.22871 20.3066 2.45413 20.0812 2.73591 20.0248C3.01768 19.9685 3.29945 20.0812 3.46852 20.363L5.66635 24.026C5.66635 24.026 5.66635 23.9697 5.66635 24.026Z" fill="#333333"/>
<path d="M5.66635 24.026C5.77906 24.1951 5.77906 24.4205 5.72271 24.5896C5.66635 24.7586 5.49729 24.9277 5.32822 24.984L2.84862 25.6603C2.6232 25.7167 2.39778 25.6603 2.22871 25.5476C2.11601 25.3785 2.0033 25.1531 2.0033 24.9277L2.22871 20.5884C2.22871 20.3066 2.45413 20.0812 2.73591 20.0248C3.01768 19.9685 3.29945 20.0812 3.46852 20.363L5.66635 24.026ZM5.66635 24.026C5.66635 23.9697 5.66635 24.026 5.66635 24.026Z" stroke="#333333" stroke-width="0.7" stroke-miterlimit="10"/>
</svg>
