<svg width="33" height="35" viewBox="0 0 33 35" fill="none" xmlns="http://www.w3.org/2000/svg">
<path d="M1.62312 16.7143C1.28499 16.7143 1.05957 16.4325 1.05957 16.0944C1.56676 8.37376 7.87849 2.45651 15.6554 2.45651C17.3461 2.45651 18.9804 2.73829 20.5583 3.30183C20.8401 3.41454 21.0091 3.75267 20.8964 4.03444C20.7837 4.31622 20.4456 4.42893 20.1638 4.37257C18.6986 3.86538 17.2334 3.58361 15.6554 3.58361C8.55475 3.58361 2.6375 9.16272 2.18666 16.2071C2.18666 16.4888 1.90489 16.7143 1.62312 16.7143Z" fill="#333333" stroke="#333333" stroke-width="2" stroke-miterlimit="10"/>
<path d="M17.6841 5.10518C17.4587 5.10518 17.2896 4.99247 17.1769 4.87976C17.0642 4.7107 17.0079 4.48528 17.0642 4.31622L17.7405 1.83661C17.7968 1.61119 17.9659 1.44213 18.135 1.38577C18.3604 1.32942 18.5858 1.32942 18.7549 1.44213L22.4179 3.86538C22.6433 4.03444 22.756 4.31622 22.6997 4.59799C22.6433 4.87976 22.3616 5.04883 22.0798 5.04883L17.6841 5.10518C17.7405 5.10518 17.7405 5.10518 17.6841 5.10518Z" fill="#333333"/>
<path d="M17.6841 5.10518C17.4587 5.10518 17.2896 4.99247 17.1769 4.87976C17.0642 4.7107 17.0079 4.48528 17.0642 4.31622L17.7405 1.83661C17.7968 1.61119 17.9659 1.44213 18.135 1.38577C18.3604 1.32942 18.5858 1.32942 18.7549 1.44213L22.4179 3.86538C22.6433 4.03444 22.756 4.31622 22.6997 4.59799C22.6433 4.87976 22.3616 5.04883 22.0798 5.04883L17.6841 5.10518ZM17.6841 5.10518C17.7405 5.10518 17.7405 5.10518 17.6841 5.10518Z" stroke="#333333" stroke-width="2" stroke-miterlimit="10"/>
<path d="M24.6722 5.55603C24.8413 5.27426 25.1794 5.2179 25.4612 5.38697C31.8857 9.66993 33.9144 18.0668 30.0259 24.8293C29.1806 26.2946 28.1099 27.5907 26.8701 28.6615C26.6447 28.8869 26.2502 28.8305 26.0811 28.5488C25.9121 28.3233 25.912 27.9852 26.1375 27.7598C27.3209 26.7454 28.2789 25.562 29.0679 24.2658C32.6183 18.1231 30.7022 10.1771 24.8413 6.28864C24.5595 6.11958 24.5032 5.78145 24.6722 5.55603Z" fill="#333333" stroke="#333333" stroke-width="2" stroke-miterlimit="10"/>
<path d="M26.6446 25.2802C26.7574 25.1111 26.9264 24.9984 27.1518 24.9421C27.3773 24.8857 27.5463 24.9984 27.7154 25.1111L29.5187 26.9145C29.6878 27.0835 29.7442 27.309 29.6878 27.478C29.6314 27.7034 29.5187 27.8725 29.2933 27.9852L25.4048 29.9576C25.1231 30.0703 24.8413 30.014 24.6722 29.8449C24.5032 29.6195 24.4468 29.3377 24.6159 29.0559L26.6446 25.2802Z" fill="#333333" stroke="#333333" stroke-width="2" stroke-miterlimit="10"/>
<path d="M22.7563 31.0284C22.9253 31.3102 22.8126 31.6483 22.5309 31.8174C15.6556 35.3114 7.31508 32.8881 3.37025 26.1256C2.52493 24.6603 1.90503 23.1388 1.62325 21.5045C1.5669 21.1663 1.79232 20.8846 2.13045 20.8282C2.41222 20.7719 2.69399 20.9973 2.75035 21.279C3.03212 22.8006 3.59567 24.2095 4.38464 25.562C7.93498 31.6483 15.7683 33.9589 22.08 30.803C22.3054 30.6903 22.6436 30.803 22.7563 31.0284Z" fill="#333333" stroke="#333333" stroke-width="2" stroke-miterlimit="10"/>
<path d="M4.66635 23.026C4.77906 23.1951 4.77906 23.4205 4.72271 23.5896C4.66635 23.7586 4.49729 23.9277 4.32822 23.984L1.84862 24.6603C1.6232 24.7167 1.39778 24.6603 1.22871 24.5476C1.11601 24.3785 1.0033 24.1531 1.0033 23.9277L1.22871 19.5884C1.22871 19.3066 1.45413 19.0812 1.73591 19.0248C2.01768 18.9685 2.29945 19.0812 2.46852 19.363L4.66635 23.026C4.66635 23.026 4.66635 22.9697 4.66635 23.026Z" fill="#333333"/>
<path d="M4.66635 23.026C4.77906 23.1951 4.77906 23.4205 4.72271 23.5896C4.66635 23.7586 4.49729 23.9277 4.32822 23.984L1.84862 24.6603C1.6232 24.7167 1.39778 24.6603 1.22871 24.5476C1.11601 24.3785 1.0033 24.1531 1.0033 23.9277L1.22871 19.5884C1.22871 19.3066 1.45413 19.0812 1.73591 19.0248C2.01768 18.9685 2.29945 19.0812 2.46852 19.363L4.66635 23.026ZM4.66635 23.026C4.66635 22.9697 4.66635 23.026 4.66635 23.026Z" stroke="#333333" stroke-width="2" stroke-miterlimit="10"/>
</svg>
