<svg width="150" height="300" viewBox="0 0 150 300" fill="none" xmlns="http://www.w3.org/2000/svg">
<path d="M5 0.5H25.5V49.5H0.5V5C0.5 2.51472 2.51472 0.5 5 0.5Z" stroke="#333333"/>
<path d="M124.5 0.5H145C147.485 0.5 149.5 2.51472 149.5 5V49.5H124.5V0.5Z" stroke="#333333"/>
<rect x="25.5" y="0.5" width="49" height="49" stroke="#333333"/>
<rect x="74.5" y="0.5" width="50" height="49" stroke="#333333"/>
<rect x="0.5" y="99.5" width="50" height="50" stroke="#333333"/>
<rect x="50.5" y="99.5" width="99" height="50" stroke="#333333"/>
<rect x="0.5" y="199.5" width="50" height="50" stroke="#333333"/>
<rect x="50.5" y="199.5" width="99" height="50" stroke="#333333"/>
<rect x="0.5" y="49.5" width="50" height="50" stroke="#333333"/>
<rect x="50.5" y="49.5" width="99" height="50" stroke="#333333"/>
<rect x="0.5" y="149.5" width="50" height="50" stroke="#333333"/>
<rect x="50.5" y="149.5" width="99" height="50" stroke="#333333"/>
<path d="M0.5 249.5H50.5V299.5H5C2.51472 299.5 0.5 297.485 0.5 295V249.5Z" stroke="#333333"/>
<path d="M50.5 249.5H149.5V295C149.5 297.485 147.485 299.5 145 299.5H50.5V249.5Z" stroke="#333333"/>
</svg>
