<svg width="36" height="36" viewBox="0 0 36 36" fill="none" xmlns="http://www.w3.org/2000/svg">
<path d="M2.62312 18.7143C2.28499 18.7143 2.05957 18.4325 2.05957 18.0944C2.56676 10.3738 8.87849 4.45657 16.6554 4.45657C18.3461 4.45657 19.9804 4.73835 21.5583 5.30189C21.8401 5.4146 22.0091 5.75273 21.8964 6.03451C21.7837 6.31628 21.4456 6.42899 21.1638 6.37263C19.6986 5.86544 18.2334 5.58367 16.6554 5.58367C9.55475 5.58367 3.6375 11.1628 3.18666 18.2071C3.18666 18.4889 2.90489 18.7143 2.62312 18.7143Z" fill="#333333" stroke="#333333" stroke-width="0.7" stroke-miterlimit="10"/>
<path d="M18.6841 7.10524C18.4587 7.10524 18.2896 6.99253 18.1769 6.87982C18.0642 6.71076 18.0079 6.48534 18.0642 6.31628L18.7405 3.83667C18.7968 3.61125 18.9659 3.44219 19.135 3.38583C19.3604 3.32948 19.5858 3.32948 19.7549 3.44219L23.4179 5.86544C23.6433 6.0345 23.756 6.31628 23.6997 6.59805C23.6433 6.87982 23.3616 7.04889 23.0798 7.04889L18.6841 7.10524C18.7405 7.10524 18.7405 7.10524 18.6841 7.10524Z" fill="#333333"/>
<path d="M18.6841 7.10524C18.4587 7.10524 18.2896 6.99253 18.1769 6.87982C18.0642 6.71076 18.0079 6.48534 18.0642 6.31628L18.7405 3.83667C18.7968 3.61125 18.9659 3.44219 19.135 3.38583C19.3604 3.32948 19.5858 3.32948 19.7549 3.44219L23.4179 5.86544C23.6433 6.0345 23.756 6.31628 23.6997 6.59805C23.6433 6.87982 23.3616 7.04889 23.0798 7.04889L18.6841 7.10524ZM18.6841 7.10524C18.7405 7.10524 18.7405 7.10524 18.6841 7.10524Z" stroke="#333333" stroke-width="0.7" stroke-miterlimit="10"/>
</svg>
