<svg width="600" height="50" viewBox="0 0 600 50" fill="none" xmlns="http://www.w3.org/2000/svg">
<rect x="0.5" y="0.5" width="599" height="49" rx="4.5" stroke="#333333"/>
<rect x="200.25" y="0.25" width="49.5" height="49.5" stroke="#333333" stroke-width="0.5"/>
<rect x="400.25" y="0.25" width="49.5" height="49.5" stroke="#333333" stroke-width="0.5"/>
<rect x="100.25" y="0.25" width="49.5" height="49.5" stroke="#333333" stroke-width="0.5"/>
<rect x="300.25" y="0.25" width="49.5" height="49.5" stroke="#333333" stroke-width="0.5"/>
<rect x="50.25" y="0.25" width="49.5" height="49.5" stroke="#333333" stroke-width="0.5"/>
<rect x="250.25" y="0.25" width="49.5" height="49.5" stroke="#333333" stroke-width="0.5"/>
<rect x="450.25" y="0.25" width="49.5" height="49.5" stroke="#333333" stroke-width="0.5"/>
<rect x="150.25" y="0.25" width="49.5" height="49.5" stroke="#333333" stroke-width="0.5"/>
<rect x="350.25" y="0.25" width="49.5" height="49.5" stroke="#333333" stroke-width="0.5"/>
<path d="M5 0.25H49.75V49.75H5C2.37665 49.75 0.25 47.6234 0.25 45V5C0.25 2.37665 2.37665 0.25 5 0.25Z" stroke="#333333" stroke-width="0.5"/>
<path d="M550.25 0.25H595C597.623 0.25 599.75 2.37665 599.75 5V45C599.75 47.6234 597.623 49.75 595 49.75H550.25V0.25Z" stroke="#333333" stroke-width="0.5"/>
<rect x="500.25" y="0.25" width="49.5" height="49.5" stroke="#333333" stroke-width="0.5"/>
</svg>
