<svg width="1250" height="800" viewBox="0 0 1250 800" fill="none" xmlns="http://www.w3.org/2000/svg">
<path d="M708.125 150.044L708.125 150.044C707.714 148.823 706.57 148 705.281 148H626.523C624.364 148 622.912 150.212 623.771 152.193L687.904 300.193C688.379 301.29 689.461 302 690.657 302H759.343C760.539 302 761.621 301.29 762.096 300.193L826.229 152.193C827.088 150.212 825.636 148 823.477 148H745.707C744.436 148 743.303 148.801 742.879 149.999L742.879 149.999L725.048 200.376L708.125 150.044Z" stroke="#D6D6D6" stroke-width="4"/>
<rect x="300" y="100" width="650" height="500" rx="5" stroke="#D6D6D6" stroke-width="4"/>
<path d="M811 640L814 648L817 640H811Z" stroke="#FBFBFB"/>
<path d="M814 599L814 640" stroke="#FBFBFB"/>
<path d="M811 590L814 598L817 590H811Z" stroke="#FBFBFB"/>
<path d="M814 549L814 590" stroke="#FBFBFB"/>
<path d="M836 640L839 648L842 640H836Z" stroke="#FBFBFB"/>
<path d="M839 599L839 640" stroke="#FBFBFB"/>
<path d="M836 590L839 598L842 590H836Z" stroke="#FBFBFB"/>
<path d="M839 549L839 590" stroke="#FBFBFB"/>
<path d="M861 640L864 648L867 640H861Z" stroke="#FBFBFB"/>
<path d="M864 599L864 640" stroke="#FBFBFB"/>
<path d="M861 590L864 598L867 590H861Z" stroke="#FBFBFB"/>
<path d="M864 549L864 590" stroke="#FBFBFB"/>
<path d="M886 640L889 648L892 640H886Z" stroke="#FBFBFB"/>
<path d="M889 599L889 640" stroke="#FBFBFB"/>
<path d="M886 590L889 598L892 590H886Z" stroke="#FBFBFB"/>
<path d="M889 549L889 590" stroke="#FBFBFB"/>
<path d="M517.833 114.5L525 101.063L532.166 114.5H530H529.5V115V120V120.5H530H925C927.485 120.5 929.5 122.515 929.5 125V375C929.5 377.485 927.485 379.5 925 379.5H915H914.5V380V382.167L901.062 375L914.5 367.833V370V370.5H915H920H920.5V370V130V129.5H920H780H779.5V130V135V135.5H780H782.167L775 148.938L767.833 135.5H770H770.5V135V130V129.5H770H680H679.5V130V135V135.5H680H682.167L675 148.938L667.833 135.5H670H670.5V135V130V129.5H670H405H404.5V130V135V135.5H405H407.166L400 148.938L392.833 135.5H395H395.5V135V130V129.5H395H330H329.5V130V395V395.5H330H335H335.5V395V392.833L348.937 400L335.5 407.167V405V404.5H335H325C322.515 404.5 320.5 402.485 320.5 400V125C320.5 122.515 322.515 120.5 325 120.5H520H520.5V120V115V114.5H520H517.833Z" stroke="#FBFBFB"/>
<path d="M264.5 82.1667L251.062 75L264.5 67.8333V70V70.5H265H420H420.5V70V65V64.5H420H417.833L425 51.0625L432.166 64.5H430H429.5V65V70V70.5H430H620H620.5V70V65V64.5H620H617.833L625 51.0625L632.167 64.5H630H629.5V65V70V70.5H630H820H820.5V70V65V64.5H820H817.833L825 51.0625L832.167 64.5H830H829.5V65V70V70.5H830H985H985.5V70V67.8333L998.937 75L985.5 82.1667V80V79.5H985H530H529.5V80V85V85.5H530H532.167L525 98.9375L517.833 85.5H520H520.5V85V80V79.5H520H265H264.5V80V82.1667Z" stroke="#FBFBFB"/>
<path d="M445.5 585V550.5H454.5V585V585.5H455H457.166L450 598.938L442.833 585.5H445H445.5V585Z" stroke="#FBFBFB"/>
<path d="M445 620.5H445.5V620V601.5H454.5V620V620.5H455H985H985.5V620V617.833L998.937 625L985.5 632.167V630V629.5H985H780H779.5V630V635V635.5H780H782.167L775 648.938L767.833 635.5H770H770.5V635V630V629.5H770H265H264.5V630V632.167L251.062 625L264.5 617.833V620V620.5H265H445Z" stroke="#FBFBFB"/>
<path d="M870.5 145V144.5H870H867.833L875 131.063L882.167 144.5H880H879.5V145V325C879.5 327.485 877.485 329.5 875 329.5H725C722.515 329.5 720.5 327.485 720.5 325V303.5H729.5V320V320.5H730H870H870.5V320V145Z" stroke="#FBFBFB"/>
<path d="M667.701 68V57.9785H674.947V59.1611H669.027V62.2305H674.571V63.4062H669.027V66.8174H675.18V68H667.701ZM676.034 68L678.687 64.2266L676.232 60.7402H677.771L678.885 62.4424C679.094 62.766 679.263 63.0371 679.391 63.2559C679.591 62.9551 679.776 62.6885 679.944 62.4561L681.168 60.7402H682.638L680.129 64.1582L682.829 68H681.318L679.828 65.7441L679.432 65.1357L677.524 68H676.034ZM686.541 66.8994L686.719 67.9863C686.372 68.0592 686.062 68.0957 685.789 68.0957C685.342 68.0957 684.996 68.0251 684.75 67.8838C684.504 67.7425 684.331 67.5579 684.23 67.3301C684.13 67.0977 684.08 66.6123 684.08 65.874V61.6973H683.178V60.7402H684.08V58.9424L685.304 58.2041V60.7402H686.541V61.6973H685.304V65.9424C685.304 66.2933 685.324 66.5189 685.365 66.6191C685.411 66.7194 685.481 66.7992 685.577 66.8584C685.677 66.9176 685.819 66.9473 686.001 66.9473C686.138 66.9473 686.318 66.9313 686.541 66.8994ZM692.721 65.6621L693.992 65.8193C693.792 66.5622 693.42 67.1387 692.878 67.5488C692.336 67.959 691.643 68.1641 690.8 68.1641C689.738 68.1641 688.895 67.8382 688.271 67.1865C687.651 66.5303 687.341 65.612 687.341 64.4316C687.341 63.2103 687.655 62.2624 688.284 61.5879C688.913 60.9134 689.729 60.5762 690.731 60.5762C691.702 60.5762 692.495 60.9066 693.11 61.5674C693.726 62.2282 694.033 63.1579 694.033 64.3564C694.033 64.4294 694.031 64.5387 694.026 64.6846H688.612C688.658 65.4821 688.883 66.0928 689.289 66.5166C689.695 66.9404 690.201 67.1523 690.807 67.1523C691.258 67.1523 691.643 67.0339 691.962 66.7969C692.281 66.5599 692.534 66.1816 692.721 65.6621ZM688.681 63.6729H692.734C692.68 63.0622 692.525 62.6042 692.27 62.2988C691.878 61.8249 691.369 61.5879 690.745 61.5879C690.18 61.5879 689.704 61.777 689.316 62.1553C688.934 62.5335 688.722 63.0394 688.681 63.6729ZM695.53 68V60.7402H696.638V61.8408C696.92 61.3258 697.18 60.9863 697.417 60.8223C697.659 60.6582 697.923 60.5762 698.21 60.5762C698.625 60.5762 699.046 60.7083 699.475 60.9727L699.051 62.1143C698.75 61.9365 698.449 61.8477 698.148 61.8477C697.88 61.8477 697.638 61.9297 697.424 62.0938C697.21 62.2533 697.057 62.4766 696.966 62.7637C696.829 63.2012 696.761 63.6797 696.761 64.1992V68H695.53ZM700.206 68V60.7402H701.313V61.7725C701.847 60.9749 702.617 60.5762 703.624 60.5762C704.062 60.5762 704.463 60.6559 704.827 60.8154C705.196 60.9704 705.472 61.1755 705.654 61.4307C705.837 61.6859 705.964 61.9889 706.037 62.3398C706.083 62.5677 706.105 62.9665 706.105 63.5361V68H704.875V63.584C704.875 63.0827 704.827 62.709 704.731 62.4629C704.636 62.2122 704.465 62.014 704.219 61.8682C703.977 61.7178 703.692 61.6426 703.364 61.6426C702.84 61.6426 702.387 61.8089 702.004 62.1416C701.626 62.4743 701.437 63.1055 701.437 64.0352V68H700.206ZM712.969 65.6621L714.24 65.8193C714.04 66.5622 713.668 67.1387 713.126 67.5488C712.584 67.959 711.891 68.1641 711.048 68.1641C709.986 68.1641 709.143 67.8382 708.519 67.1865C707.899 66.5303 707.589 65.612 707.589 64.4316C707.589 63.2103 707.903 62.2624 708.532 61.5879C709.161 60.9134 709.977 60.5762 710.979 60.5762C711.95 60.5762 712.743 60.9066 713.358 61.5674C713.974 62.2282 714.281 63.1579 714.281 64.3564C714.281 64.4294 714.279 64.5387 714.274 64.6846H708.86C708.906 65.4821 709.132 66.0928 709.537 66.5166C709.943 66.9404 710.449 67.1523 711.055 67.1523C711.506 67.1523 711.891 67.0339 712.21 66.7969C712.529 66.5599 712.782 66.1816 712.969 65.6621ZM708.929 63.6729H712.982C712.928 63.0622 712.773 62.6042 712.518 62.2988C712.126 61.8249 711.618 61.5879 710.993 61.5879C710.428 61.5879 709.952 61.777 709.564 62.1553C709.182 62.5335 708.97 63.0394 708.929 63.6729ZM715.778 68V60.7402H716.886V61.8408C717.168 61.3258 717.428 60.9863 717.665 60.8223C717.907 60.6582 718.171 60.5762 718.458 60.5762C718.873 60.5762 719.294 60.7083 719.723 60.9727L719.299 62.1143C718.998 61.9365 718.697 61.8477 718.396 61.8477C718.128 61.8477 717.886 61.9297 717.672 62.0938C717.458 62.2533 717.305 62.4766 717.214 62.7637C717.077 63.2012 717.009 63.6797 717.009 64.1992V68H715.778ZM724.508 68V57.9785H727.96C728.739 57.9785 729.334 58.0264 729.744 58.1221C730.318 58.2542 730.808 58.4935 731.214 58.8398C731.743 59.2865 732.137 59.8584 732.396 60.5557C732.661 61.2484 732.793 62.0413 732.793 62.9346C732.793 63.6956 732.704 64.3701 732.526 64.958C732.349 65.5459 732.121 66.0335 731.843 66.4209C731.565 66.8037 731.259 67.1068 730.927 67.3301C730.599 67.5488 730.2 67.7152 729.73 67.8291C729.266 67.943 728.73 68 728.124 68H724.508ZM725.834 66.8174H727.974C728.634 66.8174 729.152 66.7559 729.525 66.6328C729.904 66.5098 730.204 66.3366 730.428 66.1133C730.742 65.7988 730.986 65.3773 731.159 64.8486C731.337 64.3154 731.426 63.6706 731.426 62.9141C731.426 61.8659 731.253 61.0615 730.906 60.501C730.564 59.9359 730.147 59.5576 729.655 59.3662C729.3 59.2295 728.728 59.1611 727.939 59.1611H725.834V66.8174ZM739.205 67.1045C738.749 67.4919 738.31 67.7653 737.886 67.9248C737.466 68.0843 737.015 68.1641 736.532 68.1641C735.735 68.1641 735.122 67.9704 734.693 67.583C734.265 67.1911 734.051 66.6921 734.051 66.0859C734.051 65.7305 734.131 65.4069 734.29 65.1152C734.454 64.819 734.666 64.582 734.926 64.4043C735.19 64.2266 735.486 64.0921 735.814 64.001C736.056 63.9372 736.421 63.8757 736.908 63.8164C737.902 63.6979 738.633 63.5566 739.103 63.3926C739.107 63.224 739.109 63.1169 739.109 63.0713C739.109 62.57 738.993 62.2168 738.761 62.0117C738.446 61.7337 737.979 61.5947 737.359 61.5947C736.781 61.5947 736.352 61.6973 736.074 61.9023C735.801 62.1029 735.598 62.4606 735.466 62.9756L734.263 62.8115C734.372 62.2965 734.552 61.8818 734.803 61.5674C735.053 61.2484 735.416 61.0046 735.89 60.8359C736.364 60.6628 736.913 60.5762 737.537 60.5762C738.157 60.5762 738.66 60.6491 739.048 60.7949C739.435 60.9408 739.72 61.1253 739.902 61.3486C740.085 61.5674 740.212 61.8454 740.285 62.1826C740.326 62.3923 740.347 62.7705 740.347 63.3174V64.958C740.347 66.1019 740.372 66.8265 740.422 67.1318C740.477 67.4326 740.581 67.722 740.736 68H739.451C739.324 67.7448 739.242 67.4463 739.205 67.1045ZM739.103 64.3564C738.656 64.5387 737.986 64.6937 737.093 64.8213C736.587 64.8942 736.229 64.9762 736.02 65.0674C735.81 65.1585 735.648 65.293 735.534 65.4707C735.42 65.6439 735.363 65.8376 735.363 66.0518C735.363 66.3799 735.486 66.6533 735.732 66.8721C735.983 67.0908 736.348 67.2002 736.826 67.2002C737.3 67.2002 737.722 67.0977 738.091 66.8926C738.46 66.6829 738.731 66.3981 738.904 66.0381C739.036 65.7601 739.103 65.3499 739.103 64.8076V64.3564ZM744.947 66.8994L745.125 67.9863C744.779 68.0592 744.469 68.0957 744.195 68.0957C743.749 68.0957 743.402 68.0251 743.156 67.8838C742.91 67.7425 742.737 67.5579 742.637 67.3301C742.536 67.0977 742.486 66.6123 742.486 65.874V61.6973H741.584V60.7402H742.486V58.9424L743.71 58.2041V60.7402H744.947V61.6973H743.71V65.9424C743.71 66.2933 743.73 66.5189 743.771 66.6191C743.817 66.7194 743.888 66.7992 743.983 66.8584C744.084 66.9176 744.225 66.9473 744.407 66.9473C744.544 66.9473 744.724 66.9313 744.947 66.8994ZM751.127 65.6621L752.398 65.8193C752.198 66.5622 751.826 67.1387 751.284 67.5488C750.742 67.959 750.049 68.1641 749.206 68.1641C748.144 68.1641 747.301 67.8382 746.677 67.1865C746.057 66.5303 745.747 65.612 745.747 64.4316C745.747 63.2103 746.062 62.2624 746.69 61.5879C747.319 60.9134 748.135 60.5762 749.138 60.5762C750.108 60.5762 750.901 60.9066 751.517 61.5674C752.132 62.2282 752.439 63.1579 752.439 64.3564C752.439 64.4294 752.437 64.5387 752.433 64.6846H747.019C747.064 65.4821 747.29 66.0928 747.695 66.5166C748.101 66.9404 748.607 67.1523 749.213 67.1523C749.664 67.1523 750.049 67.0339 750.368 66.7969C750.687 66.5599 750.94 66.1816 751.127 65.6621ZM747.087 63.6729H751.141C751.086 63.0622 750.931 62.6042 750.676 62.2988C750.284 61.8249 749.776 61.5879 749.151 61.5879C748.586 61.5879 748.11 61.777 747.723 62.1553C747.34 62.5335 747.128 63.0394 747.087 63.6729ZM753.95 68V60.7402H755.058V61.7725C755.591 60.9749 756.361 60.5762 757.368 60.5762C757.806 60.5762 758.207 60.6559 758.571 60.8154C758.94 60.9704 759.216 61.1755 759.398 61.4307C759.581 61.6859 759.708 61.9889 759.781 62.3398C759.827 62.5677 759.85 62.9665 759.85 63.5361V68H758.619V63.584C758.619 63.0827 758.571 62.709 758.476 62.4629C758.38 62.2122 758.209 62.014 757.963 61.8682C757.721 61.7178 757.437 61.6426 757.108 61.6426C756.584 61.6426 756.131 61.8089 755.748 62.1416C755.37 62.4743 755.181 63.1055 755.181 64.0352V68H753.95ZM762.878 68H761.736V57.9785H762.967V61.5537C763.486 60.902 764.149 60.5762 764.956 60.5762C765.403 60.5762 765.824 60.6673 766.221 60.8496C766.622 61.0273 766.95 61.2803 767.205 61.6084C767.465 61.932 767.668 62.3239 767.813 62.7842C767.959 63.2445 768.032 63.7367 768.032 64.2607C768.032 65.5049 767.725 66.4665 767.109 67.1455C766.494 67.8245 765.756 68.1641 764.895 68.1641C764.038 68.1641 763.366 67.8063 762.878 67.0908V68ZM762.864 64.3154C762.864 65.1859 762.983 65.8148 763.22 66.2021C763.607 66.8356 764.131 67.1523 764.792 67.1523C765.33 67.1523 765.795 66.9199 766.187 66.4551C766.578 65.9857 766.774 65.2884 766.774 64.3633C766.774 63.4154 766.585 62.7158 766.207 62.2646C765.833 61.8135 765.38 61.5879 764.847 61.5879C764.309 61.5879 763.844 61.8226 763.452 62.292C763.06 62.7568 762.864 63.4313 762.864 64.3154ZM774.294 68V66.9336C773.729 67.7539 772.961 68.1641 771.99 68.1641C771.562 68.1641 771.161 68.082 770.787 67.918C770.418 67.7539 770.142 67.5488 769.96 67.3027C769.782 67.0521 769.657 66.7467 769.584 66.3867C769.534 66.1452 769.509 65.7624 769.509 65.2383V60.7402H770.739V64.7666C770.739 65.4092 770.764 65.8421 770.814 66.0654C770.892 66.389 771.056 66.6442 771.307 66.8311C771.557 67.0133 771.867 67.1045 772.236 67.1045C772.605 67.1045 772.952 67.0111 773.275 66.8242C773.599 66.6328 773.827 66.3753 773.959 66.0518C774.096 65.7236 774.164 65.2497 774.164 64.6299V60.7402H775.395V68H774.294ZM776.837 65.833L778.054 65.6416C778.122 66.1292 778.311 66.5029 778.621 66.7627C778.936 67.0225 779.373 67.1523 779.934 67.1523C780.499 67.1523 780.918 67.0384 781.191 66.8105C781.465 66.5781 781.602 66.307 781.602 65.9971C781.602 65.7191 781.481 65.5003 781.239 65.3408C781.071 65.2314 780.651 65.0924 779.981 64.9238C779.079 64.696 778.452 64.5 778.102 64.3359C777.755 64.1673 777.491 63.9372 777.309 63.6455C777.131 63.3493 777.042 63.0234 777.042 62.668C777.042 62.3444 777.115 62.0459 777.261 61.7725C777.411 61.4945 777.614 61.2643 777.869 61.082C778.061 60.9408 778.32 60.8223 778.648 60.7266C778.981 60.6263 779.337 60.5762 779.715 60.5762C780.285 60.5762 780.784 60.6582 781.212 60.8223C781.645 60.9863 781.964 61.2096 782.169 61.4922C782.374 61.7702 782.515 62.1439 782.593 62.6133L781.39 62.7773C781.335 62.4036 781.175 62.112 780.911 61.9023C780.651 61.6927 780.282 61.5879 779.804 61.5879C779.239 61.5879 778.835 61.6813 778.594 61.8682C778.352 62.055 778.231 62.2738 778.231 62.5244C778.231 62.6839 778.282 62.8275 778.382 62.9551C778.482 63.0872 778.639 63.1966 778.854 63.2832C778.977 63.3288 779.339 63.4336 779.94 63.5977C780.811 63.8301 781.417 64.0215 781.759 64.1719C782.105 64.3177 782.376 64.5319 782.572 64.8145C782.768 65.097 782.866 65.4479 782.866 65.8672C782.866 66.2773 782.745 66.6647 782.504 67.0293C782.267 67.3893 781.923 67.6696 781.472 67.8701C781.021 68.0661 780.51 68.1641 779.94 68.1641C778.997 68.1641 778.277 67.9681 777.78 67.5762C777.288 67.1842 776.974 66.6032 776.837 65.833Z" fill="#888888"/>
<path d="M460.994 644V633.979H468.24V635.161H462.32V638.23H467.864V639.406H462.32V642.817H468.473V644H460.994ZM469.327 644L471.979 640.227L469.525 636.74H471.063L472.178 638.442C472.387 638.766 472.556 639.037 472.684 639.256C472.884 638.955 473.069 638.688 473.237 638.456L474.461 636.74H475.931L473.422 640.158L476.122 644H474.611L473.121 641.744L472.725 641.136L470.817 644H469.327ZM479.834 642.899L480.012 643.986C479.665 644.059 479.355 644.096 479.082 644.096C478.635 644.096 478.289 644.025 478.043 643.884C477.797 643.743 477.624 643.558 477.523 643.33C477.423 643.098 477.373 642.612 477.373 641.874V637.697H476.471V636.74H477.373V634.942L478.597 634.204V636.74H479.834V637.697H478.597V641.942C478.597 642.293 478.617 642.519 478.658 642.619C478.704 642.719 478.774 642.799 478.87 642.858C478.97 642.918 479.112 642.947 479.294 642.947C479.431 642.947 479.611 642.931 479.834 642.899ZM486.014 641.662L487.285 641.819C487.085 642.562 486.713 643.139 486.171 643.549C485.629 643.959 484.936 644.164 484.093 644.164C483.031 644.164 482.188 643.838 481.563 643.187C480.944 642.53 480.634 641.612 480.634 640.432C480.634 639.21 480.948 638.262 481.577 637.588C482.206 636.913 483.022 636.576 484.024 636.576C484.995 636.576 485.788 636.907 486.403 637.567C487.019 638.228 487.326 639.158 487.326 640.356C487.326 640.429 487.324 640.539 487.319 640.685H481.905C481.951 641.482 482.176 642.093 482.582 642.517C482.988 642.94 483.493 643.152 484.1 643.152C484.551 643.152 484.936 643.034 485.255 642.797C485.574 642.56 485.827 642.182 486.014 641.662ZM481.974 639.673H486.027C485.973 639.062 485.818 638.604 485.562 638.299C485.171 637.825 484.662 637.588 484.038 637.588C483.473 637.588 482.997 637.777 482.609 638.155C482.227 638.534 482.015 639.039 481.974 639.673ZM488.823 644V636.74H489.931V637.841C490.213 637.326 490.473 636.986 490.71 636.822C490.951 636.658 491.216 636.576 491.503 636.576C491.918 636.576 492.339 636.708 492.768 636.973L492.344 638.114C492.043 637.937 491.742 637.848 491.441 637.848C491.173 637.848 490.931 637.93 490.717 638.094C490.503 638.253 490.35 638.477 490.259 638.764C490.122 639.201 490.054 639.68 490.054 640.199V644H488.823ZM493.499 644V636.74H494.606V637.772C495.14 636.975 495.91 636.576 496.917 636.576C497.354 636.576 497.756 636.656 498.12 636.815C498.489 636.97 498.765 637.175 498.947 637.431C499.13 637.686 499.257 637.989 499.33 638.34C499.376 638.568 499.398 638.966 499.398 639.536V644H498.168V639.584C498.168 639.083 498.12 638.709 498.024 638.463C497.929 638.212 497.758 638.014 497.512 637.868C497.27 637.718 496.985 637.643 496.657 637.643C496.133 637.643 495.68 637.809 495.297 638.142C494.919 638.474 494.729 639.105 494.729 640.035V644H493.499ZM506.262 641.662L507.533 641.819C507.333 642.562 506.961 643.139 506.419 643.549C505.877 643.959 505.184 644.164 504.341 644.164C503.279 644.164 502.436 643.838 501.812 643.187C501.192 642.53 500.882 641.612 500.882 640.432C500.882 639.21 501.196 638.262 501.825 637.588C502.454 636.913 503.27 636.576 504.272 636.576C505.243 636.576 506.036 636.907 506.651 637.567C507.267 638.228 507.574 639.158 507.574 640.356C507.574 640.429 507.572 640.539 507.567 640.685H502.153C502.199 641.482 502.424 642.093 502.83 642.517C503.236 642.94 503.742 643.152 504.348 643.152C504.799 643.152 505.184 643.034 505.503 642.797C505.822 642.56 506.075 642.182 506.262 641.662ZM502.222 639.673H506.275C506.221 639.062 506.066 638.604 505.811 638.299C505.419 637.825 504.91 637.588 504.286 637.588C503.721 637.588 503.245 637.777 502.857 638.155C502.475 638.534 502.263 639.039 502.222 639.673ZM509.071 644V636.74H510.179V637.841C510.461 637.326 510.721 636.986 510.958 636.822C511.2 636.658 511.464 636.576 511.751 636.576C512.166 636.576 512.587 636.708 513.016 636.973L512.592 638.114C512.291 637.937 511.99 637.848 511.689 637.848C511.421 637.848 511.179 637.93 510.965 638.094C510.751 638.253 510.598 638.477 510.507 638.764C510.37 639.201 510.302 639.68 510.302 640.199V644H509.071ZM515.921 644L519.77 633.979H521.198L525.3 644H523.789L522.62 640.965H518.43L517.329 644H515.921ZM518.812 639.885H522.21L521.164 637.109C520.845 636.266 520.608 635.574 520.453 635.031C520.326 635.674 520.146 636.312 519.913 636.945L518.812 639.885ZM530.912 644V643.084C530.452 643.804 529.775 644.164 528.882 644.164C528.303 644.164 527.77 644.005 527.282 643.686C526.799 643.367 526.423 642.922 526.154 642.353C525.89 641.778 525.758 641.12 525.758 640.377C525.758 639.652 525.879 638.996 526.12 638.408C526.362 637.816 526.724 637.362 527.207 637.048C527.69 636.733 528.23 636.576 528.827 636.576C529.265 636.576 529.654 636.67 529.996 636.856C530.338 637.039 530.616 637.278 530.83 637.574V633.979H532.054V644H530.912ZM527.022 640.377C527.022 641.307 527.218 642.002 527.61 642.462C528.002 642.922 528.465 643.152 528.998 643.152C529.536 643.152 529.992 642.934 530.365 642.496C530.743 642.054 530.933 641.382 530.933 640.479C530.933 639.486 530.741 638.757 530.358 638.292C529.976 637.827 529.504 637.595 528.943 637.595C528.396 637.595 527.938 637.818 527.569 638.265C527.205 638.711 527.022 639.415 527.022 640.377ZM533.981 644V636.74H535.089V637.841C535.371 637.326 535.631 636.986 535.868 636.822C536.11 636.658 536.374 636.576 536.661 636.576C537.076 636.576 537.497 636.708 537.926 636.973L537.502 638.114C537.201 637.937 536.9 637.848 536.6 637.848C536.331 637.848 536.089 637.93 535.875 638.094C535.661 638.253 535.508 638.477 535.417 638.764C535.28 639.201 535.212 639.68 535.212 640.199V644H533.981ZM543.627 641.662L544.898 641.819C544.698 642.562 544.326 643.139 543.784 643.549C543.242 643.959 542.549 644.164 541.706 644.164C540.644 644.164 539.801 643.838 539.177 643.187C538.557 642.53 538.247 641.612 538.247 640.432C538.247 639.21 538.562 638.262 539.19 637.588C539.819 636.913 540.635 636.576 541.638 636.576C542.608 636.576 543.401 636.907 544.017 637.567C544.632 638.228 544.939 639.158 544.939 640.356C544.939 640.429 544.937 640.539 544.933 640.685H539.519C539.564 641.482 539.79 642.093 540.195 642.517C540.601 642.94 541.107 643.152 541.713 643.152C542.164 643.152 542.549 643.034 542.868 642.797C543.187 642.56 543.44 642.182 543.627 641.662ZM539.587 639.673H543.641C543.586 639.062 543.431 638.604 543.176 638.299C542.784 637.825 542.276 637.588 541.651 637.588C541.086 637.588 540.61 637.777 540.223 638.155C539.84 638.534 539.628 639.039 539.587 639.673ZM545.958 641.833L547.175 641.642C547.243 642.129 547.432 642.503 547.742 642.763C548.057 643.022 548.494 643.152 549.055 643.152C549.62 643.152 550.039 643.038 550.312 642.811C550.586 642.578 550.723 642.307 550.723 641.997C550.723 641.719 550.602 641.5 550.36 641.341C550.192 641.231 549.772 641.092 549.103 640.924C548.2 640.696 547.574 640.5 547.223 640.336C546.876 640.167 546.612 639.937 546.43 639.646C546.252 639.349 546.163 639.023 546.163 638.668C546.163 638.344 546.236 638.046 546.382 637.772C546.532 637.494 546.735 637.264 546.99 637.082C547.182 636.941 547.441 636.822 547.77 636.727C548.102 636.626 548.458 636.576 548.836 636.576C549.406 636.576 549.905 636.658 550.333 636.822C550.766 636.986 551.085 637.21 551.29 637.492C551.495 637.77 551.636 638.144 551.714 638.613L550.511 638.777C550.456 638.404 550.297 638.112 550.032 637.902C549.772 637.693 549.403 637.588 548.925 637.588C548.36 637.588 547.956 637.681 547.715 637.868C547.473 638.055 547.353 638.274 547.353 638.524C547.353 638.684 547.403 638.827 547.503 638.955C547.603 639.087 547.76 639.197 547.975 639.283C548.098 639.329 548.46 639.434 549.062 639.598C549.932 639.83 550.538 640.021 550.88 640.172C551.226 640.318 551.497 640.532 551.693 640.814C551.889 641.097 551.987 641.448 551.987 641.867C551.987 642.277 551.867 642.665 551.625 643.029C551.388 643.389 551.044 643.67 550.593 643.87C550.142 644.066 549.631 644.164 549.062 644.164C548.118 644.164 547.398 643.968 546.901 643.576C546.409 643.184 546.095 642.603 545.958 641.833ZM552.958 641.833L554.175 641.642C554.243 642.129 554.432 642.503 554.742 642.763C555.057 643.022 555.494 643.152 556.055 643.152C556.62 643.152 557.039 643.038 557.312 642.811C557.586 642.578 557.723 642.307 557.723 641.997C557.723 641.719 557.602 641.5 557.36 641.341C557.192 641.231 556.772 641.092 556.103 640.924C555.2 640.696 554.574 640.5 554.223 640.336C553.876 640.167 553.612 639.937 553.43 639.646C553.252 639.349 553.163 639.023 553.163 638.668C553.163 638.344 553.236 638.046 553.382 637.772C553.532 637.494 553.735 637.264 553.99 637.082C554.182 636.941 554.441 636.822 554.77 636.727C555.102 636.626 555.458 636.576 555.836 636.576C556.406 636.576 556.905 636.658 557.333 636.822C557.766 636.986 558.085 637.21 558.29 637.492C558.495 637.77 558.636 638.144 558.714 638.613L557.511 638.777C557.456 638.404 557.297 638.112 557.032 637.902C556.772 637.693 556.403 637.588 555.925 637.588C555.36 637.588 554.956 637.681 554.715 637.868C554.473 638.055 554.353 638.274 554.353 638.524C554.353 638.684 554.403 638.827 554.503 638.955C554.603 639.087 554.76 639.197 554.975 639.283C555.098 639.329 555.46 639.434 556.062 639.598C556.932 639.83 557.538 640.021 557.88 640.172C558.226 640.318 558.497 640.532 558.693 640.814C558.889 641.097 558.987 641.448 558.987 641.867C558.987 642.277 558.867 642.665 558.625 643.029C558.388 643.389 558.044 643.67 557.593 643.87C557.142 644.066 556.631 644.164 556.062 644.164C555.118 644.164 554.398 643.968 553.901 643.576C553.409 643.184 553.095 642.603 552.958 641.833ZM561.585 644H560.443V633.979H561.674V637.554C562.193 636.902 562.856 636.576 563.663 636.576C564.11 636.576 564.531 636.667 564.928 636.85C565.329 637.027 565.657 637.28 565.912 637.608C566.172 637.932 566.375 638.324 566.521 638.784C566.666 639.244 566.739 639.737 566.739 640.261C566.739 641.505 566.432 642.466 565.816 643.146C565.201 643.825 564.463 644.164 563.602 644.164C562.745 644.164 562.073 643.806 561.585 643.091V644ZM561.571 640.315C561.571 641.186 561.69 641.815 561.927 642.202C562.314 642.836 562.838 643.152 563.499 643.152C564.037 643.152 564.502 642.92 564.894 642.455C565.285 641.986 565.481 641.288 565.481 640.363C565.481 639.415 565.292 638.716 564.914 638.265C564.54 637.813 564.087 637.588 563.554 637.588C563.016 637.588 562.551 637.823 562.159 638.292C561.767 638.757 561.571 639.431 561.571 640.315ZM573.001 644V642.934C572.436 643.754 571.668 644.164 570.697 644.164C570.269 644.164 569.868 644.082 569.494 643.918C569.125 643.754 568.849 643.549 568.667 643.303C568.489 643.052 568.364 642.747 568.291 642.387C568.241 642.145 568.216 641.762 568.216 641.238V636.74H569.446V640.767C569.446 641.409 569.471 641.842 569.521 642.065C569.599 642.389 569.763 642.644 570.014 642.831C570.264 643.013 570.574 643.104 570.943 643.104C571.312 643.104 571.659 643.011 571.982 642.824C572.306 642.633 572.534 642.375 572.666 642.052C572.803 641.724 572.871 641.25 572.871 640.63V636.74H574.102V644H573.001ZM575.544 641.833L576.761 641.642C576.829 642.129 577.018 642.503 577.328 642.763C577.643 643.022 578.08 643.152 578.641 643.152C579.206 643.152 579.625 643.038 579.898 642.811C580.172 642.578 580.309 642.307 580.309 641.997C580.309 641.719 580.188 641.5 579.946 641.341C579.778 641.231 579.358 641.092 578.688 640.924C577.786 640.696 577.16 640.5 576.809 640.336C576.462 640.167 576.198 639.937 576.016 639.646C575.838 639.349 575.749 639.023 575.749 638.668C575.749 638.344 575.822 638.046 575.968 637.772C576.118 637.494 576.321 637.264 576.576 637.082C576.768 636.941 577.027 636.822 577.355 636.727C577.688 636.626 578.044 636.576 578.422 636.576C578.992 636.576 579.491 636.658 579.919 636.822C580.352 636.986 580.671 637.21 580.876 637.492C581.081 637.77 581.222 638.144 581.3 638.613L580.097 638.777C580.042 638.404 579.882 638.112 579.618 637.902C579.358 637.693 578.989 637.588 578.511 637.588C577.946 637.588 577.542 637.681 577.301 637.868C577.059 638.055 576.938 638.274 576.938 638.524C576.938 638.684 576.989 638.827 577.089 638.955C577.189 639.087 577.346 639.197 577.561 639.283C577.684 639.329 578.046 639.434 578.647 639.598C579.518 639.83 580.124 640.021 580.466 640.172C580.812 640.318 581.083 640.532 581.279 640.814C581.475 641.097 581.573 641.448 581.573 641.867C581.573 642.277 581.452 642.665 581.211 643.029C580.974 643.389 580.63 643.67 580.179 643.87C579.728 644.066 579.217 644.164 578.647 644.164C577.704 644.164 576.984 643.968 576.487 643.576C575.995 643.184 575.681 642.603 575.544 641.833Z" fill="#888888"/>
<path d="M670.224 118V107.979H671.55V118H670.224ZM673.737 118V110.74H674.845V111.772C675.378 110.975 676.148 110.576 677.155 110.576C677.593 110.576 677.994 110.656 678.358 110.815C678.728 110.97 679.003 111.175 679.186 111.431C679.368 111.686 679.495 111.989 679.568 112.34C679.614 112.568 679.637 112.966 679.637 113.536V118H678.406V113.584C678.406 113.083 678.358 112.709 678.263 112.463C678.167 112.212 677.996 112.014 677.75 111.868C677.508 111.718 677.224 111.643 676.896 111.643C676.371 111.643 675.918 111.809 675.535 112.142C675.157 112.474 674.968 113.105 674.968 114.035V118H673.737ZM684.217 116.899L684.395 117.986C684.048 118.059 683.738 118.096 683.465 118.096C683.018 118.096 682.672 118.025 682.426 117.884C682.18 117.743 682.007 117.558 681.906 117.33C681.806 117.098 681.756 116.612 681.756 115.874V111.697H680.854V110.74H681.756V108.942L682.979 108.204V110.74H684.217V111.697H682.979V115.942C682.979 116.293 683 116.519 683.041 116.619C683.087 116.719 683.157 116.799 683.253 116.858C683.353 116.918 683.494 116.947 683.677 116.947C683.813 116.947 683.993 116.931 684.217 116.899ZM690.396 115.662L691.668 115.819C691.467 116.562 691.096 117.139 690.554 117.549C690.011 117.959 689.319 118.164 688.476 118.164C687.414 118.164 686.571 117.838 685.946 117.187C685.326 116.53 685.017 115.612 685.017 114.432C685.017 113.21 685.331 112.262 685.96 111.588C686.589 110.913 687.405 110.576 688.407 110.576C689.378 110.576 690.171 110.907 690.786 111.567C691.401 112.228 691.709 113.158 691.709 114.356C691.709 114.429 691.707 114.539 691.702 114.685H686.288C686.334 115.482 686.559 116.093 686.965 116.517C687.37 116.94 687.876 117.152 688.482 117.152C688.934 117.152 689.319 117.034 689.638 116.797C689.957 116.56 690.21 116.182 690.396 115.662ZM686.356 113.673H690.41C690.355 113.062 690.201 112.604 689.945 112.299C689.553 111.825 689.045 111.588 688.421 111.588C687.856 111.588 687.38 111.777 686.992 112.155C686.609 112.534 686.397 113.039 686.356 113.673ZM693.206 118V110.74H694.313V111.841C694.596 111.326 694.856 110.986 695.093 110.822C695.334 110.658 695.599 110.576 695.886 110.576C696.3 110.576 696.722 110.708 697.15 110.973L696.727 112.114C696.426 111.937 696.125 111.848 695.824 111.848C695.555 111.848 695.314 111.93 695.1 112.094C694.885 112.253 694.733 112.477 694.642 112.764C694.505 113.201 694.437 113.68 694.437 114.199V118H693.206ZM697.882 118V110.74H698.989V111.772C699.522 110.975 700.293 110.576 701.3 110.576C701.737 110.576 702.138 110.656 702.503 110.815C702.872 110.97 703.148 111.175 703.33 111.431C703.512 111.686 703.64 111.989 703.713 112.34C703.758 112.568 703.781 112.966 703.781 113.536V118H702.551V113.584C702.551 113.083 702.503 112.709 702.407 112.463C702.312 112.212 702.141 112.014 701.895 111.868C701.653 111.718 701.368 111.643 701.04 111.643C700.516 111.643 700.062 111.809 699.68 112.142C699.301 112.474 699.112 113.105 699.112 114.035V118H697.882ZM710.645 115.662L711.916 115.819C711.715 116.562 711.344 117.139 710.802 117.549C710.259 117.959 709.567 118.164 708.724 118.164C707.662 118.164 706.819 117.838 706.194 117.187C705.575 116.53 705.265 115.612 705.265 114.432C705.265 113.21 705.579 112.262 706.208 111.588C706.837 110.913 707.653 110.576 708.655 110.576C709.626 110.576 710.419 110.907 711.034 111.567C711.649 112.228 711.957 113.158 711.957 114.356C711.957 114.429 711.955 114.539 711.95 114.685H706.536C706.582 115.482 706.807 116.093 707.213 116.517C707.618 116.94 708.124 117.152 708.73 117.152C709.182 117.152 709.567 117.034 709.886 116.797C710.205 116.56 710.458 116.182 710.645 115.662ZM706.604 113.673H710.658C710.604 113.062 710.449 112.604 710.193 112.299C709.801 111.825 709.293 111.588 708.669 111.588C708.104 111.588 707.628 111.777 707.24 112.155C706.857 112.534 706.646 113.039 706.604 113.673ZM713.454 118V110.74H714.562V111.841C714.844 111.326 715.104 110.986 715.341 110.822C715.582 110.658 715.847 110.576 716.134 110.576C716.549 110.576 716.97 110.708 717.398 110.973L716.975 112.114C716.674 111.937 716.373 111.848 716.072 111.848C715.803 111.848 715.562 111.93 715.348 112.094C715.133 112.253 714.981 112.477 714.89 112.764C714.753 113.201 714.685 113.68 714.685 114.199V118H713.454ZM722.184 118V107.979H725.636C726.415 107.979 727.01 108.026 727.42 108.122C727.994 108.254 728.484 108.493 728.89 108.84C729.418 109.286 729.812 109.858 730.072 110.556C730.337 111.248 730.469 112.041 730.469 112.935C730.469 113.696 730.38 114.37 730.202 114.958C730.024 115.546 729.797 116.034 729.519 116.421C729.241 116.804 728.935 117.107 728.603 117.33C728.274 117.549 727.876 117.715 727.406 117.829C726.941 117.943 726.406 118 725.8 118H722.184ZM723.51 116.817H725.649C726.31 116.817 726.827 116.756 727.201 116.633C727.579 116.51 727.88 116.337 728.104 116.113C728.418 115.799 728.662 115.377 728.835 114.849C729.013 114.315 729.102 113.671 729.102 112.914C729.102 111.866 728.928 111.062 728.582 110.501C728.24 109.936 727.823 109.558 727.331 109.366C726.976 109.229 726.404 109.161 725.615 109.161H723.51V116.817ZM736.881 117.104C736.425 117.492 735.985 117.765 735.562 117.925C735.142 118.084 734.691 118.164 734.208 118.164C733.41 118.164 732.798 117.97 732.369 117.583C731.941 117.191 731.727 116.692 731.727 116.086C731.727 115.73 731.806 115.407 731.966 115.115C732.13 114.819 732.342 114.582 732.602 114.404C732.866 114.227 733.162 114.092 733.49 114.001C733.732 113.937 734.096 113.876 734.584 113.816C735.577 113.698 736.309 113.557 736.778 113.393C736.783 113.224 736.785 113.117 736.785 113.071C736.785 112.57 736.669 112.217 736.437 112.012C736.122 111.734 735.655 111.595 735.035 111.595C734.456 111.595 734.028 111.697 733.75 111.902C733.477 112.103 733.274 112.461 733.142 112.976L731.938 112.812C732.048 112.297 732.228 111.882 732.479 111.567C732.729 111.248 733.091 111.005 733.565 110.836C734.039 110.663 734.589 110.576 735.213 110.576C735.833 110.576 736.336 110.649 736.724 110.795C737.111 110.941 737.396 111.125 737.578 111.349C737.76 111.567 737.888 111.845 737.961 112.183C738.002 112.392 738.022 112.771 738.022 113.317V114.958C738.022 116.102 738.048 116.826 738.098 117.132C738.152 117.433 738.257 117.722 738.412 118H737.127C736.999 117.745 736.917 117.446 736.881 117.104ZM736.778 114.356C736.332 114.539 735.662 114.694 734.769 114.821C734.263 114.894 733.905 114.976 733.695 115.067C733.486 115.159 733.324 115.293 733.21 115.471C733.096 115.644 733.039 115.838 733.039 116.052C733.039 116.38 733.162 116.653 733.408 116.872C733.659 117.091 734.023 117.2 734.502 117.2C734.976 117.2 735.397 117.098 735.767 116.893C736.136 116.683 736.407 116.398 736.58 116.038C736.712 115.76 736.778 115.35 736.778 114.808V114.356ZM742.623 116.899L742.801 117.986C742.454 118.059 742.145 118.096 741.871 118.096C741.424 118.096 741.078 118.025 740.832 117.884C740.586 117.743 740.413 117.558 740.312 117.33C740.212 117.098 740.162 116.612 740.162 115.874V111.697H739.26V110.74H740.162V108.942L741.386 108.204V110.74H742.623V111.697H741.386V115.942C741.386 116.293 741.406 116.519 741.447 116.619C741.493 116.719 741.563 116.799 741.659 116.858C741.759 116.918 741.901 116.947 742.083 116.947C742.22 116.947 742.4 116.931 742.623 116.899ZM748.803 115.662L750.074 115.819C749.874 116.562 749.502 117.139 748.96 117.549C748.418 117.959 747.725 118.164 746.882 118.164C745.82 118.164 744.977 117.838 744.353 117.187C743.733 116.53 743.423 115.612 743.423 114.432C743.423 113.21 743.737 112.262 744.366 111.588C744.995 110.913 745.811 110.576 746.813 110.576C747.784 110.576 748.577 110.907 749.192 111.567C749.808 112.228 750.115 113.158 750.115 114.356C750.115 114.429 750.113 114.539 750.108 114.685H744.694C744.74 115.482 744.965 116.093 745.371 116.517C745.777 116.94 746.283 117.152 746.889 117.152C747.34 117.152 747.725 117.034 748.044 116.797C748.363 116.56 748.616 116.182 748.803 115.662ZM744.763 113.673H748.816C748.762 113.062 748.607 112.604 748.352 112.299C747.96 111.825 747.451 111.588 746.827 111.588C746.262 111.588 745.786 111.777 745.398 112.155C745.016 112.534 744.804 113.039 744.763 113.673ZM751.626 118V110.74H752.733V111.772C753.267 110.975 754.037 110.576 755.044 110.576C755.481 110.576 755.882 110.656 756.247 110.815C756.616 110.97 756.892 111.175 757.074 111.431C757.257 111.686 757.384 111.989 757.457 112.34C757.503 112.568 757.525 112.966 757.525 113.536V118H756.295V113.584C756.295 113.083 756.247 112.709 756.151 112.463C756.056 112.212 755.885 112.014 755.639 111.868C755.397 111.718 755.112 111.643 754.784 111.643C754.26 111.643 753.807 111.809 753.424 112.142C753.046 112.474 752.856 113.105 752.856 114.035V118H751.626ZM760.554 118H759.412V107.979H760.643V111.554C761.162 110.902 761.825 110.576 762.632 110.576C763.078 110.576 763.5 110.667 763.896 110.85C764.298 111.027 764.626 111.28 764.881 111.608C765.141 111.932 765.343 112.324 765.489 112.784C765.635 113.244 765.708 113.737 765.708 114.261C765.708 115.505 765.4 116.466 764.785 117.146C764.17 117.825 763.432 118.164 762.57 118.164C761.714 118.164 761.041 117.806 760.554 117.091V118ZM760.54 114.315C760.54 115.186 760.659 115.815 760.896 116.202C761.283 116.836 761.807 117.152 762.468 117.152C763.006 117.152 763.47 116.92 763.862 116.455C764.254 115.986 764.45 115.288 764.45 114.363C764.45 113.415 764.261 112.716 763.883 112.265C763.509 111.813 763.056 111.588 762.522 111.588C761.985 111.588 761.52 111.823 761.128 112.292C760.736 112.757 760.54 113.431 760.54 114.315ZM771.97 118V116.934C771.405 117.754 770.637 118.164 769.666 118.164C769.238 118.164 768.837 118.082 768.463 117.918C768.094 117.754 767.818 117.549 767.636 117.303C767.458 117.052 767.333 116.747 767.26 116.387C767.21 116.145 767.185 115.762 767.185 115.238V110.74H768.415V114.767C768.415 115.409 768.44 115.842 768.49 116.065C768.568 116.389 768.732 116.644 768.982 116.831C769.233 117.013 769.543 117.104 769.912 117.104C770.281 117.104 770.628 117.011 770.951 116.824C771.275 116.633 771.503 116.375 771.635 116.052C771.771 115.724 771.84 115.25 771.84 114.63V110.74H773.07V118H771.97ZM774.513 115.833L775.729 115.642C775.798 116.129 775.987 116.503 776.297 116.763C776.611 117.022 777.049 117.152 777.609 117.152C778.174 117.152 778.594 117.038 778.867 116.811C779.141 116.578 779.277 116.307 779.277 115.997C779.277 115.719 779.157 115.5 778.915 115.341C778.746 115.231 778.327 115.092 777.657 114.924C776.755 114.696 776.128 114.5 775.777 114.336C775.431 114.167 775.167 113.937 774.984 113.646C774.807 113.349 774.718 113.023 774.718 112.668C774.718 112.344 774.791 112.046 774.937 111.772C775.087 111.494 775.29 111.264 775.545 111.082C775.736 110.941 775.996 110.822 776.324 110.727C776.657 110.626 777.012 110.576 777.391 110.576C777.96 110.576 778.459 110.658 778.888 110.822C779.321 110.986 779.64 111.21 779.845 111.492C780.05 111.77 780.191 112.144 780.269 112.613L779.065 112.777C779.011 112.404 778.851 112.112 778.587 111.902C778.327 111.693 777.958 111.588 777.479 111.588C776.914 111.588 776.511 111.681 776.27 111.868C776.028 112.055 775.907 112.274 775.907 112.524C775.907 112.684 775.957 112.827 776.058 112.955C776.158 113.087 776.315 113.197 776.529 113.283C776.652 113.329 777.015 113.434 777.616 113.598C778.487 113.83 779.093 114.021 779.435 114.172C779.781 114.318 780.052 114.532 780.248 114.814C780.444 115.097 780.542 115.448 780.542 115.867C780.542 116.277 780.421 116.665 780.18 117.029C779.943 117.389 779.599 117.67 779.147 117.87C778.696 118.066 778.186 118.164 777.616 118.164C776.673 118.164 775.953 117.968 775.456 117.576C774.964 117.184 774.649 116.603 774.513 115.833Z" fill="#888888"/>
<path d="M393.017 569V558.979H394.343V569H393.017ZM396.53 569V561.74H397.638V562.772C398.171 561.975 398.941 561.576 399.948 561.576C400.386 561.576 400.787 561.656 401.151 561.815C401.521 561.97 401.796 562.175 401.979 562.431C402.161 562.686 402.288 562.989 402.361 563.34C402.407 563.568 402.43 563.966 402.43 564.536V569H401.199V564.584C401.199 564.083 401.151 563.709 401.056 563.463C400.96 563.212 400.789 563.014 400.543 562.868C400.301 562.718 400.017 562.643 399.688 562.643C399.164 562.643 398.711 562.809 398.328 563.142C397.95 563.474 397.761 564.105 397.761 565.035V569H396.53ZM407.01 567.899L407.188 568.986C406.841 569.059 406.531 569.096 406.258 569.096C405.811 569.096 405.465 569.025 405.219 568.884C404.973 568.743 404.799 568.558 404.699 568.33C404.599 568.098 404.549 567.612 404.549 566.874V562.697H403.646V561.74H404.549V559.942L405.772 559.204V561.74H407.01V562.697H405.772V566.942C405.772 567.293 405.793 567.519 405.834 567.619C405.88 567.719 405.95 567.799 406.046 567.858C406.146 567.918 406.287 567.947 406.47 567.947C406.606 567.947 406.786 567.931 407.01 567.899ZM413.189 566.662L414.461 566.819C414.26 567.562 413.889 568.139 413.347 568.549C412.804 568.959 412.112 569.164 411.269 569.164C410.207 569.164 409.364 568.838 408.739 568.187C408.119 567.53 407.81 566.612 407.81 565.432C407.81 564.21 408.124 563.262 408.753 562.588C409.382 561.913 410.198 561.576 411.2 561.576C412.171 561.576 412.964 561.907 413.579 562.567C414.194 563.228 414.502 564.158 414.502 565.356C414.502 565.429 414.5 565.539 414.495 565.685H409.081C409.127 566.482 409.352 567.093 409.758 567.517C410.163 567.94 410.669 568.152 411.275 568.152C411.727 568.152 412.112 568.034 412.431 567.797C412.75 567.56 413.003 567.182 413.189 566.662ZM409.149 564.673H413.203C413.148 564.062 412.993 563.604 412.738 563.299C412.346 562.825 411.838 562.588 411.214 562.588C410.649 562.588 410.173 562.777 409.785 563.155C409.402 563.534 409.19 564.039 409.149 564.673ZM415.999 569V561.74H417.106V562.841C417.389 562.326 417.649 561.986 417.886 561.822C418.127 561.658 418.392 561.576 418.679 561.576C419.093 561.576 419.515 561.708 419.943 561.973L419.52 563.114C419.219 562.937 418.918 562.848 418.617 562.848C418.348 562.848 418.107 562.93 417.893 563.094C417.678 563.253 417.526 563.477 417.435 563.764C417.298 564.201 417.229 564.68 417.229 565.199V569H415.999ZM420.675 569V561.74H421.782V562.772C422.315 561.975 423.086 561.576 424.093 561.576C424.53 561.576 424.931 561.656 425.296 561.815C425.665 561.97 425.941 562.175 426.123 562.431C426.305 562.686 426.433 562.989 426.506 563.34C426.551 563.568 426.574 563.966 426.574 564.536V569H425.344V564.584C425.344 564.083 425.296 563.709 425.2 563.463C425.104 563.212 424.934 563.014 424.688 562.868C424.446 562.718 424.161 562.643 423.833 562.643C423.309 562.643 422.855 562.809 422.473 563.142C422.094 563.474 421.905 564.105 421.905 565.035V569H420.675ZM433.438 566.662L434.709 566.819C434.508 567.562 434.137 568.139 433.595 568.549C433.052 568.959 432.36 569.164 431.517 569.164C430.455 569.164 429.612 568.838 428.987 568.187C428.368 567.53 428.058 566.612 428.058 565.432C428.058 564.21 428.372 563.262 429.001 562.588C429.63 561.913 430.446 561.576 431.448 561.576C432.419 561.576 433.212 561.907 433.827 562.567C434.442 563.228 434.75 564.158 434.75 565.356C434.75 565.429 434.748 565.539 434.743 565.685H429.329C429.375 566.482 429.6 567.093 430.006 567.517C430.411 567.94 430.917 568.152 431.523 568.152C431.975 568.152 432.36 568.034 432.679 567.797C432.998 567.56 433.251 567.182 433.438 566.662ZM429.397 564.673H433.451C433.396 564.062 433.242 563.604 432.986 563.299C432.594 562.825 432.086 562.588 431.462 562.588C430.897 562.588 430.421 562.777 430.033 563.155C429.65 563.534 429.438 564.039 429.397 564.673ZM436.247 569V561.74H437.354V562.841C437.637 562.326 437.897 561.986 438.134 561.822C438.375 561.658 438.64 561.576 438.927 561.576C439.341 561.576 439.763 561.708 440.191 561.973L439.768 563.114C439.467 562.937 439.166 562.848 438.865 562.848C438.596 562.848 438.355 562.93 438.141 563.094C437.926 563.253 437.774 563.477 437.683 563.764C437.546 564.201 437.478 564.68 437.478 565.199V569H436.247ZM373.808 585L377.656 574.979H379.085L383.187 585H381.676L380.507 581.965H376.316L375.216 585H373.808ZM376.699 580.885H380.097L379.051 578.109C378.732 577.266 378.495 576.574 378.34 576.031C378.212 576.674 378.032 577.312 377.8 577.945L376.699 580.885ZM388.799 585V584.084C388.339 584.804 387.662 585.164 386.769 585.164C386.19 585.164 385.657 585.005 385.169 584.686C384.686 584.367 384.31 583.922 384.041 583.353C383.777 582.778 383.645 582.12 383.645 581.377C383.645 580.652 383.765 579.996 384.007 579.408C384.248 578.816 384.611 578.362 385.094 578.048C385.577 577.733 386.117 577.576 386.714 577.576C387.151 577.576 387.541 577.67 387.883 577.856C388.225 578.039 388.503 578.278 388.717 578.574V574.979H389.94V585H388.799ZM384.909 581.377C384.909 582.307 385.105 583.002 385.497 583.462C385.889 583.922 386.352 584.152 386.885 584.152C387.423 584.152 387.878 583.934 388.252 583.496C388.63 583.054 388.819 582.382 388.819 581.479C388.819 580.486 388.628 579.757 388.245 579.292C387.862 578.827 387.391 578.595 386.83 578.595C386.283 578.595 385.825 578.818 385.456 579.265C385.091 579.711 384.909 580.415 384.909 581.377ZM391.868 585V577.74H392.976V578.841C393.258 578.326 393.518 577.986 393.755 577.822C393.996 577.658 394.261 577.576 394.548 577.576C394.963 577.576 395.384 577.708 395.812 577.973L395.389 579.114C395.088 578.937 394.787 578.848 394.486 578.848C394.217 578.848 393.976 578.93 393.762 579.094C393.548 579.253 393.395 579.477 393.304 579.764C393.167 580.201 393.099 580.68 393.099 581.199V585H391.868ZM401.514 582.662L402.785 582.819C402.585 583.562 402.213 584.139 401.671 584.549C401.129 584.959 400.436 585.164 399.593 585.164C398.531 585.164 397.688 584.838 397.063 584.187C396.444 583.53 396.134 582.612 396.134 581.432C396.134 580.21 396.448 579.262 397.077 578.588C397.706 577.913 398.522 577.576 399.524 577.576C400.495 577.576 401.288 577.907 401.903 578.567C402.519 579.228 402.826 580.158 402.826 581.356C402.826 581.429 402.824 581.539 402.819 581.685H397.405C397.451 582.482 397.676 583.093 398.082 583.517C398.488 583.94 398.993 584.152 399.6 584.152C400.051 584.152 400.436 584.034 400.755 583.797C401.074 583.56 401.327 583.182 401.514 582.662ZM397.474 580.673H401.527C401.473 580.062 401.318 579.604 401.062 579.299C400.671 578.825 400.162 578.588 399.538 578.588C398.973 578.588 398.497 578.777 398.109 579.155C397.727 579.534 397.515 580.039 397.474 580.673ZM403.845 582.833L405.062 582.642C405.13 583.129 405.319 583.503 405.629 583.763C405.943 584.022 406.381 584.152 406.941 584.152C407.507 584.152 407.926 584.038 408.199 583.811C408.473 583.578 408.609 583.307 408.609 582.997C408.609 582.719 408.489 582.5 408.247 582.341C408.078 582.231 407.659 582.092 406.989 581.924C406.087 581.696 405.46 581.5 405.109 581.336C404.763 581.167 404.499 580.937 404.316 580.646C404.139 580.349 404.05 580.023 404.05 579.668C404.05 579.344 404.123 579.046 404.269 578.772C404.419 578.494 404.622 578.264 404.877 578.082C405.068 577.941 405.328 577.822 405.656 577.727C405.989 577.626 406.344 577.576 406.723 577.576C407.292 577.576 407.791 577.658 408.22 577.822C408.653 577.986 408.972 578.21 409.177 578.492C409.382 578.77 409.523 579.144 409.601 579.613L408.397 579.777C408.343 579.404 408.183 579.112 407.919 578.902C407.659 578.693 407.29 578.588 406.812 578.588C406.246 578.588 405.843 578.681 405.602 578.868C405.36 579.055 405.239 579.274 405.239 579.524C405.239 579.684 405.289 579.827 405.39 579.955C405.49 580.087 405.647 580.197 405.861 580.283C405.984 580.329 406.347 580.434 406.948 580.598C407.819 580.83 408.425 581.021 408.767 581.172C409.113 581.318 409.384 581.532 409.58 581.814C409.776 582.097 409.874 582.448 409.874 582.867C409.874 583.277 409.753 583.665 409.512 584.029C409.275 584.389 408.931 584.67 408.479 584.87C408.028 585.066 407.518 585.164 406.948 585.164C406.005 585.164 405.285 584.968 404.788 584.576C404.296 584.184 403.981 583.603 403.845 582.833ZM410.845 582.833L412.062 582.642C412.13 583.129 412.319 583.503 412.629 583.763C412.943 584.022 413.381 584.152 413.941 584.152C414.507 584.152 414.926 584.038 415.199 583.811C415.473 583.578 415.609 583.307 415.609 582.997C415.609 582.719 415.489 582.5 415.247 582.341C415.078 582.231 414.659 582.092 413.989 581.924C413.087 581.696 412.46 581.5 412.109 581.336C411.763 581.167 411.499 580.937 411.316 580.646C411.139 580.349 411.05 580.023 411.05 579.668C411.05 579.344 411.123 579.046 411.269 578.772C411.419 578.494 411.622 578.264 411.877 578.082C412.068 577.941 412.328 577.822 412.656 577.727C412.989 577.626 413.344 577.576 413.723 577.576C414.292 577.576 414.791 577.658 415.22 577.822C415.653 577.986 415.972 578.21 416.177 578.492C416.382 578.77 416.523 579.144 416.601 579.613L415.397 579.777C415.343 579.404 415.183 579.112 414.919 578.902C414.659 578.693 414.29 578.588 413.812 578.588C413.246 578.588 412.843 578.681 412.602 578.868C412.36 579.055 412.239 579.274 412.239 579.524C412.239 579.684 412.289 579.827 412.39 579.955C412.49 580.087 412.647 580.197 412.861 580.283C412.984 580.329 413.347 580.434 413.948 580.598C414.819 580.83 415.425 581.021 415.767 581.172C416.113 581.318 416.384 581.532 416.58 581.814C416.776 582.097 416.874 582.448 416.874 582.867C416.874 583.277 416.753 583.665 416.512 584.029C416.275 584.389 415.931 584.67 415.479 584.87C415.028 585.066 414.518 585.164 413.948 585.164C413.005 585.164 412.285 584.968 411.788 584.576C411.296 584.184 410.981 583.603 410.845 582.833ZM419.472 585H418.33V574.979H419.561V578.554C420.08 577.902 420.743 577.576 421.55 577.576C421.996 577.576 422.418 577.667 422.814 577.85C423.215 578.027 423.544 578.28 423.799 578.608C424.059 578.932 424.261 579.324 424.407 579.784C424.553 580.244 424.626 580.737 424.626 581.261C424.626 582.505 424.318 583.466 423.703 584.146C423.088 584.825 422.35 585.164 421.488 585.164C420.632 585.164 419.959 584.806 419.472 584.091V585ZM419.458 581.315C419.458 582.186 419.576 582.815 419.813 583.202C420.201 583.836 420.725 584.152 421.386 584.152C421.924 584.152 422.388 583.92 422.78 583.455C423.172 582.986 423.368 582.288 423.368 581.363C423.368 580.415 423.179 579.716 422.801 579.265C422.427 578.813 421.974 578.588 421.44 578.588C420.903 578.588 420.438 578.823 420.046 579.292C419.654 579.757 419.458 580.431 419.458 581.315ZM430.888 585V583.934C430.323 584.754 429.555 585.164 428.584 585.164C428.156 585.164 427.755 585.082 427.381 584.918C427.012 584.754 426.736 584.549 426.554 584.303C426.376 584.052 426.251 583.747 426.178 583.387C426.128 583.145 426.103 582.762 426.103 582.238V577.74H427.333V581.767C427.333 582.409 427.358 582.842 427.408 583.065C427.486 583.389 427.65 583.644 427.9 583.831C428.151 584.013 428.461 584.104 428.83 584.104C429.199 584.104 429.546 584.011 429.869 583.824C430.193 583.633 430.421 583.375 430.553 583.052C430.689 582.724 430.758 582.25 430.758 581.63V577.74H431.988V585H430.888ZM433.431 582.833L434.647 582.642C434.716 583.129 434.905 583.503 435.215 583.763C435.529 584.022 435.967 584.152 436.527 584.152C437.092 584.152 437.512 584.038 437.785 583.811C438.059 583.578 438.195 583.307 438.195 582.997C438.195 582.719 438.075 582.5 437.833 582.341C437.664 582.231 437.245 582.092 436.575 581.924C435.673 581.696 435.046 581.5 434.695 581.336C434.349 581.167 434.085 580.937 433.902 580.646C433.725 580.349 433.636 580.023 433.636 579.668C433.636 579.344 433.709 579.046 433.854 578.772C434.005 578.494 434.208 578.264 434.463 578.082C434.654 577.941 434.914 577.822 435.242 577.727C435.575 577.626 435.93 577.576 436.309 577.576C436.878 577.576 437.377 577.658 437.806 577.822C438.239 577.986 438.558 578.21 438.763 578.492C438.968 578.77 439.109 579.144 439.187 579.613L437.983 579.777C437.929 579.404 437.769 579.112 437.505 578.902C437.245 578.693 436.876 578.588 436.397 578.588C435.832 578.588 435.429 578.681 435.188 578.868C434.946 579.055 434.825 579.274 434.825 579.524C434.825 579.684 434.875 579.827 434.976 579.955C435.076 580.087 435.233 580.197 435.447 580.283C435.57 580.329 435.933 580.434 436.534 580.598C437.405 580.83 438.011 581.021 438.353 581.172C438.699 581.318 438.97 581.532 439.166 581.814C439.362 582.097 439.46 582.448 439.46 582.867C439.46 583.277 439.339 583.665 439.098 584.029C438.861 584.389 438.517 584.67 438.065 584.87C437.614 585.066 437.104 585.164 436.534 585.164C435.591 585.164 434.871 584.968 434.374 584.576C433.882 584.184 433.567 583.603 433.431 582.833Z" fill="#888888"/>
<path d="M717.112 226.68L715.528 222.472C715.4 222.147 715.27 221.733 715.136 221.232C715.078 221.483 715.014 221.715 714.944 221.928C714.875 222.136 714.811 222.32 714.752 222.48L713.168 226.68H717.112ZM720.656 231H719.208C719.043 231 718.91 230.96 718.808 230.88C718.707 230.795 718.63 230.691 718.576 230.568L717.616 228.024H712.656L711.696 230.568C711.654 230.675 711.579 230.773 711.472 230.864C711.366 230.955 711.232 231 711.072 231H709.624L714.192 219.48H716.088L720.656 231ZM728.657 229.432V231H722.001V219.48H723.873V229.432H728.657ZM734.435 229.488C734.878 229.488 735.273 229.413 735.619 229.264C735.971 229.115 736.267 228.907 736.507 228.64C736.753 228.373 736.939 228.053 737.067 227.68C737.195 227.301 737.259 226.883 737.259 226.424V219.48H739.123V226.424C739.123 227.101 739.014 227.728 738.795 228.304C738.582 228.88 738.273 229.379 737.867 229.8C737.462 230.216 736.969 230.544 736.387 230.784C735.811 231.019 735.161 231.136 734.435 231.136C733.71 231.136 733.057 231.019 732.475 230.784C731.899 230.544 731.409 230.216 731.003 229.8C730.598 229.379 730.286 228.88 730.067 228.304C729.854 227.728 729.747 227.101 729.747 226.424V219.48H731.619V226.416C731.619 226.875 731.683 227.293 731.811 227.672C731.939 228.045 732.123 228.368 732.363 228.64C732.603 228.907 732.897 229.115 733.243 229.264C733.595 229.413 733.993 229.488 734.435 229.488Z" fill="#FBFBFB"/>
</svg>
