<svg width="33" height="31" viewBox="0 0 33 31" fill="none" xmlns="http://www.w3.org/2000/svg">
<path d="M1.62312 15.7143C1.28499 15.7143 1.05957 15.4325 1.05957 15.0944C1.56676 7.37376 7.87849 1.45651 15.6554 1.45651C17.3461 1.45651 18.9804 1.73829 20.5583 2.30183C20.8401 2.41454 21.0091 2.75267 20.8964 3.03444C20.7837 3.31622 20.4456 3.42893 20.1638 3.37257C18.6986 2.86538 17.2334 2.58361 15.6554 2.58361C8.55475 2.58361 2.6375 8.16272 2.18666 15.2071C2.18666 15.4888 1.90489 15.7143 1.62312 15.7143Z" fill="#333333" stroke="#333333" stroke-width="2" stroke-miterlimit="10"/>
<path d="M24.6722 4.55603C24.8413 4.27426 25.1794 4.2179 25.4612 4.38697C31.8857 8.66993 33.9144 17.0668 30.0259 23.8293C29.1806 25.2946 28.1099 26.5907 26.8701 27.6615C26.6447 27.8869 26.2502 27.8305 26.0811 27.5488C25.9121 27.3233 25.912 26.9852 26.1375 26.7598C27.3209 25.7454 28.2789 24.562 29.0679 23.2658C32.6183 17.1231 30.7022 9.17712 24.8413 5.28864C24.5595 5.11958 24.5032 4.78145 24.6722 4.55603Z" fill="#333333" stroke="#333333" stroke-width="2" stroke-miterlimit="10"/>
<path d="M26.6446 24.2802C26.7574 24.1111 26.9264 23.9984 27.1518 23.9421C27.3773 23.8857 27.5463 23.9984 27.7154 24.1111L29.5187 25.9145C29.6878 26.0835 29.7442 26.309 29.6878 26.478C29.6314 26.7034 29.5187 26.8725 29.2933 26.9852L25.4048 28.9576C25.1231 29.0703 24.8413 29.014 24.6722 28.8449C24.5032 28.6195 24.4468 28.3377 24.6159 28.0559L26.6446 24.2802Z" fill="#333333" stroke="#333333" stroke-width="2" stroke-miterlimit="10"/>
</svg>
