<svg width="1150" height="800" viewBox="0 0 1150 800" fill="none" xmlns="http://www.w3.org/2000/svg">
<path d="M289 400H276C275.448 400 275 399.552 275 399V126C275 125.448 275.448 125 276 125H350M475 125H625M475 125H350M475 125V112M475 75H375M475 75H575M475 75V90M889 75H775M261 75H375M375 75V61M575 75V61M575 75H775M775 138V125M775 125H874C874.553 125 875 125.448 875 126V325V374C875 374.552 874.553 375 874 375H860M775 125H625M625 139V125M350 125V139M259.5 625H400M889 625H725M400 550V588.5M400 625H725M400 625V602M700 299V324C700 324.552 700.448 325 701 325H859M775 60V75M725 639V625" stroke="#6A6A6A" stroke-width="10"/>
<rect x="251" y="101" width="648" height="500" rx="4" stroke="#6A6A6A" stroke-width="2"/>
<path d="M760 641L763 649L766 641H760Z" stroke="#333333"/>
<path d="M763 600L763 641" stroke="#333333"/>
<path d="M760 591L763 599L766 591H760Z" stroke="#333333"/>
<path d="M763 550L763 591" stroke="#333333"/>
<path d="M785 641L788 649L791 641H785Z" stroke="#333333"/>
<path d="M788 600L788 641" stroke="#333333"/>
<path d="M785 591L788 599L791 591H785Z" stroke="#333333"/>
<path d="M788 550L788 591" stroke="#333333"/>
<path d="M810 641L813 649L816 641H810Z" stroke="#333333"/>
<path d="M813 600L813 641" stroke="#333333"/>
<path d="M810 591L813 599L816 591H810Z" stroke="#333333"/>
<path d="M813 550L813 591" stroke="#333333"/>
<path d="M835 641L838 649L841 641H835Z" stroke="#333333"/>
<path d="M838 600L838 641" stroke="#333333"/>
<path d="M835 591L838 599L841 591H835Z" stroke="#333333"/>
<path d="M838 550L838 591" stroke="#333333"/>
<path d="M575 50L583 65H567L575 50Z" fill="#6A6A6A"/>
<path d="M775 50L783 65H767L775 50Z" fill="#6A6A6A"/>
<path d="M900 75L885 83L885 67L900 75Z" fill="#6A6A6A"/>
<path d="M375 50L383 65H367L375 50Z" fill="#6A6A6A"/>
<path d="M250 75L265 67L265 83L250 75Z" fill="#6A6A6A"/>
<path d="M475 101L467 86L483 86L475 101Z" fill="#6A6A6A"/>
<path d="M475 101L483 116H467L475 101Z" fill="#6A6A6A"/>
<path d="M625 150L617 135L633 135L625 150Z" fill="#6A6A6A"/>
<path d="M775 150L767 135L783 135L775 150Z" fill="#6A6A6A"/>
<path d="M870 325L855 333L855 317L870 325Z" fill="#6A6A6A"/>
<path d="M850 375L865 367L865 383L850 375Z" fill="#6A6A6A"/>
<path d="M350 150L342 135L358 135L350 150Z" fill="#6A6A6A"/>
<path d="M300 400L285 408L285 392L300 400Z" fill="#6A6A6A"/>
<path d="M250 625L265 617L265 633L250 625Z" fill="#6A6A6A"/>
<path d="M400 602L392 587L408 587L400 602Z" fill="#6A6A6A"/>
<path d="M900 625L885 633L885 617L900 625Z" fill="#6A6A6A"/>
<path d="M725 650L717 635L733 635L725 650Z" fill="#6A6A6A"/>
<path d="M739.007 299.5H660.994C659.873 299.5 658.82 298.964 658.162 298.057L555.018 156.057C553.337 153.743 554.99 150.5 557.849 150.5H656.917C658.037 150.5 659.09 151.036 659.749 151.943L696.359 202.345C698.156 204.819 701.844 204.819 703.641 202.345L740.251 151.943C740.91 151.036 741.963 150.5 743.083 150.5H842.151C845.01 150.5 846.663 153.743 844.983 156.057L741.838 298.057C741.18 298.964 740.127 299.5 739.007 299.5Z" stroke="#6A6A6A"/>
</svg>
