<svg width="50" height="50" viewBox="0 0 50 50" fill="none" xmlns="http://www.w3.org/2000/svg">
<path d="M10.6198 24.3655C10.2817 24.3655 10.0563 24.0838 10.0563 23.7456C10.5635 16.025 16.8752 10.1078 24.6521 10.1078C26.3428 10.1078 27.9771 10.3896 29.555 10.9531C29.8368 11.0658 30.0058 11.4039 29.8931 11.6857C29.7804 11.9675 29.4423 12.0802 29.1605 12.0238C27.6953 11.5167 26.2301 11.2349 24.6521 11.2349C17.5515 11.2349 11.6342 16.814 11.1834 23.8583C11.1834 24.1401 10.9016 24.3655 10.6198 24.3655Z" fill="#333333" stroke="#333333" stroke-width="2" stroke-miterlimit="10"/>
<path d="M26.6808 12.7564C26.4554 12.7564 26.2863 12.6437 26.1736 12.531C26.0609 12.3619 26.0046 12.1365 26.0609 11.9675L26.7372 9.48785C26.7935 9.26244 26.9626 9.09337 27.1317 9.03702C27.3571 8.98066 27.5825 8.98066 27.7516 9.09337L31.4146 11.5166C31.64 11.6857 31.7528 11.9675 31.6964 12.2492C31.64 12.531 31.3583 12.7001 31.0765 12.7001L26.6808 12.7564C26.7372 12.7564 26.7372 12.7564 26.6808 12.7564Z" fill="#333333"/>
<path d="M26.6808 12.7564C26.4554 12.7564 26.2863 12.6437 26.1736 12.531C26.0609 12.3619 26.0046 12.1365 26.0609 11.9675L26.7372 9.48785C26.7935 9.26244 26.9626 9.09337 27.1317 9.03702C27.3571 8.98066 27.5825 8.98066 27.7516 9.09337L31.4146 11.5166C31.64 11.6857 31.7528 11.9675 31.6964 12.2492C31.64 12.531 31.3583 12.7001 31.0765 12.7001L26.6808 12.7564ZM26.6808 12.7564C26.7372 12.7564 26.7372 12.7564 26.6808 12.7564Z" stroke="#333333" stroke-width="2" stroke-miterlimit="10"/>
<rect x="0.25" y="0.25" width="49.5" height="49.5" stroke="#333333" stroke-width="0.5"/>
</svg>
