<svg width="50" height="50" viewBox="0 0 50 50" fill="none" xmlns="http://www.w3.org/2000/svg">
<path d="M18.5057 33.9949C18.5952 35.3379 18.2371 36.6809 17.6104 37.7553C16.8941 38.9193 15.8197 39.8146 14.6557 40.3518C15.6406 39.546 16.3569 38.3821 16.6255 37.1286C15.7301 37.5763 15.0139 38.2925 14.4767 39.1879C14.5662 38.0239 15.1034 36.9495 15.8197 36.0542C14.2976 38.1135 12.2383 39.7251 10 40.889C11.2535 39.4565 12.3279 37.8449 13.0441 36.1437C12.1488 36.9495 11.343 37.8449 10.4477 38.6507C10.9849 37.1286 11.4325 35.6065 12.3279 34.2635C13.2232 32.9205 14.6557 31.8461 16.2673 31.7566" stroke="#333333" stroke-width="1.5" stroke-miterlimit="10"/>
<path d="M19.6697 32.0252C25.2208 33.01 20.1173 37.3972 20.1173 37.3972C20.1173 37.3972 27.4591 36.86 29.4288 29.0706" stroke="#333333" stroke-width="1.5" stroke-miterlimit="10"/>
<path d="M40.3519 10C16.2674 14.2081 18.3266 31.9357 18.3266 31.9357C18.3266 31.9357 36.1438 33.995 40.3519 10Z" stroke="#333333" stroke-width="1.5" stroke-miterlimit="10"/>
<path d="M18.3266 30.5928C17.3417 25.0417 12.9546 30.1451 12.9546 30.1451C12.9546 30.1451 13.4918 22.8034 21.2812 20.8336" stroke="#333333" stroke-width="1.5" stroke-miterlimit="10"/>
<path d="M31.7566 21.9079C33.6357 21.9079 35.1589 20.3847 35.1589 18.5057C35.1589 16.6266 33.6357 15.1034 31.7566 15.1034C29.8776 15.1034 28.3544 16.6266 28.3544 18.5057C28.3544 20.3847 29.8776 21.9079 31.7566 21.9079Z" stroke="#333333" stroke-width="1.5" stroke-miterlimit="10"/>
<path d="M31.7566 20.1173C32.6467 20.1173 33.3682 19.3957 33.3682 18.5056C33.3682 17.6156 32.6467 16.894 31.7566 16.894C30.8666 16.894 30.145 17.6156 30.145 18.5056C30.145 19.3957 30.8666 20.1173 31.7566 20.1173Z" stroke="#333333" stroke-width="1.5" stroke-miterlimit="10"/>
<rect x="0.25" y="0.25" width="49.5" height="49.5" stroke="#333333" stroke-width="0.5"/>
</svg>
