<svg width="24" height="24" viewBox="0 0 24 24" fill="none" xmlns="http://www.w3.org/2000/svg">
<path d="M10 1.5V9.5C10 9.77614 9.77614 10 9.5 10H1.5C1.22386 10 1 10.2239 1 10.5V13.5C1 13.7761 1.22386 14 1.5 14H9.5C9.77614 14 10 14.2239 10 14.5V22.5C10 22.7761 10.2239 23 10.5 23H13.5C13.7761 23 14 22.7761 14 22.5V14.5C14 14.2239 14.2239 14 14.5 14H22.5C22.7761 14 23 13.7761 23 13.5V10.5C23 10.2239 22.7761 10 22.5 10H14.5C14.2239 10 14 9.77614 14 9.5V1.5C14 1.22386 13.7761 1 13.5 1H10.5C10.2239 1 10 1.22386 10 1.5Z" stroke="#333333" stroke-width="1.5"/>
</svg>
