<svg width="50" height="50" viewBox="0 0 50 50" fill="none" xmlns="http://www.w3.org/2000/svg">
<path d="M23 14.1V22.9C23 22.9552 22.9552 23 22.9 23H14.1C14.0448 23 14 23.0448 14 23.1V26.9C14 26.9552 14.0448 27 14.1 27H22.9C22.9552 27 23 27.0448 23 27.1V35.9C23 35.9552 23.0448 36 23.1 36H26.9C26.9552 36 27 35.9552 27 35.9V27.1C27 27.0448 27.0448 27 27.1 27H35.9C35.9552 27 36 26.9552 36 26.9V23.1C36 23.0448 35.9552 23 35.9 23H27.1C27.0448 23 27 22.9552 27 22.9V14.1C27 14.0448 26.9552 14 26.9 14H23.1C23.0448 14 23 14.0448 23 14.1Z" stroke="#333333" stroke-width="2"/>
<rect x="0.25" y="0.25" width="49.5" height="49.5" stroke="#333333" stroke-width="0.5"/>
</svg>
