<svg width="50" height="50" viewBox="0 0 50 50" fill="none" xmlns="http://www.w3.org/2000/svg">
<path d="M9.61982 24.3655C9.28169 24.3655 9.05627 24.0838 9.05627 23.7456C9.56347 16.025 15.8752 10.1078 23.6521 10.1078C25.3428 10.1078 26.9771 10.3896 28.555 10.9531C28.8368 11.0658 29.0058 11.4039 28.8931 11.6857C28.7804 11.9675 28.4423 12.0802 28.1605 12.0238C26.6953 11.5167 25.2301 11.2349 23.6521 11.2349C16.5515 11.2349 10.6342 16.814 10.1834 23.8583C10.1834 24.1401 9.90159 24.3655 9.61982 24.3655Z" fill="#333333" stroke="#333333" stroke-width="2" stroke-miterlimit="10"/>
<path d="M25.6808 12.7564C25.4554 12.7564 25.2863 12.6437 25.1736 12.531C25.0609 12.3619 25.0046 12.1365 25.0609 11.9675L25.7372 9.48785C25.7935 9.26244 25.9626 9.09337 26.1317 9.03702C26.3571 8.98066 26.5825 8.98066 26.7516 9.09337L30.4146 11.5166C30.64 11.6857 30.7528 11.9675 30.6964 12.2492C30.64 12.531 30.3583 12.7001 30.0765 12.7001L25.6808 12.7564C25.7372 12.7564 25.7372 12.7564 25.6808 12.7564Z" fill="#333333"/>
<path d="M25.6808 12.7564C25.4554 12.7564 25.2863 12.6437 25.1736 12.531C25.0609 12.3619 25.0046 12.1365 25.0609 11.9675L25.7372 9.48785C25.7935 9.26244 25.9626 9.09337 26.1317 9.03702C26.3571 8.98066 26.5825 8.98066 26.7516 9.09337L30.4146 11.5166C30.64 11.6857 30.7528 11.9675 30.6964 12.2492C30.64 12.531 30.3583 12.7001 30.0765 12.7001L25.6808 12.7564ZM25.6808 12.7564C25.7372 12.7564 25.7372 12.7564 25.6808 12.7564Z" stroke="#333333" stroke-width="2" stroke-miterlimit="10"/>
<path d="M32.669 13.2073C32.838 12.9255 33.1761 12.8691 33.4579 13.0382C39.8824 17.3212 41.9111 25.718 38.0226 32.4806C37.1773 33.9458 36.1066 35.242 34.8668 36.3127C34.6414 36.5381 34.2469 36.4818 34.0778 36.2C33.9088 35.9746 33.9088 35.6365 34.1342 35.411C35.3176 34.3966 36.2757 33.2132 37.0646 31.917C40.615 25.7744 38.6989 17.8284 32.838 13.9399C32.5562 13.7708 32.4999 13.4327 32.669 13.2073Z" fill="#333333" stroke="#333333" stroke-width="2" stroke-miterlimit="10"/>
<path d="M34.6413 32.9315C34.7541 32.7624 34.9231 32.6497 35.1485 32.5934C35.374 32.537 35.543 32.6497 35.7121 32.7624L37.5154 34.5658C37.6845 34.7348 37.7409 34.9603 37.6845 35.1293C37.6281 35.3547 37.5154 35.5238 37.29 35.6365L33.4015 37.6089C33.1198 37.7216 32.838 37.6653 32.6689 37.4962C32.4999 37.2708 32.4435 36.989 32.6126 36.7073L34.6413 32.9315Z" fill="#333333" stroke="#333333" stroke-width="2" stroke-miterlimit="10"/>
<path d="M30.753 38.6796C30.922 38.9614 30.8093 39.2995 30.5276 39.4686C23.6523 42.9626 15.3118 40.5393 11.367 33.7767C10.5216 32.3115 9.90173 30.7899 9.61996 29.1557C9.5636 28.8175 9.78902 28.5358 10.1272 28.4794C10.4089 28.423 10.6907 28.6485 10.7471 28.9302C11.0288 30.4518 11.5924 31.8607 12.3813 33.2132C15.9317 39.2995 23.765 41.61 30.0767 38.4542C30.3021 38.3415 30.6403 38.4542 30.753 38.6796Z" fill="#333333" stroke="#333333" stroke-width="2" stroke-miterlimit="10"/>
<path d="M12.6631 30.6773C12.7758 30.8463 12.7758 31.0717 12.7194 31.2408C12.6631 31.4099 12.494 31.5789 12.3249 31.6353L9.84532 32.3115C9.6199 32.3679 9.39448 32.3115 9.22542 32.1988C9.11271 32.0298 9 31.8044 9 31.5789L9.22542 27.2396C9.22542 26.9578 9.45084 26.7324 9.73261 26.6761C10.0144 26.6197 10.2962 26.7324 10.4652 27.0142L12.6631 30.6773C12.6631 30.6773 12.6631 30.6209 12.6631 30.6773Z" fill="#333333"/>
<path d="M12.6631 30.6773C12.7758 30.8463 12.7758 31.0717 12.7194 31.2408C12.6631 31.4099 12.494 31.5789 12.3249 31.6353L9.84532 32.3115C9.6199 32.3679 9.39448 32.3115 9.22542 32.1988C9.11271 32.0298 9 31.8044 9 31.5789L9.22542 27.2396C9.22542 26.9578 9.45084 26.7324 9.73261 26.6761C10.0144 26.6197 10.2962 26.7324 10.4652 27.0142L12.6631 30.6773ZM12.6631 30.6773C12.6631 30.6209 12.6631 30.6773 12.6631 30.6773Z" stroke="#333333" stroke-width="2" stroke-miterlimit="10"/>
<rect x="0.25" y="0.25" width="49.5" height="49.5" stroke="#333333" stroke-width="0.5"/>
</svg>
