<svg width="50" height="50" viewBox="0 0 50 50" fill="none" xmlns="http://www.w3.org/2000/svg">
<rect x="0.25" y="0.25" width="49.5" height="49.5" stroke="#333333" stroke-width="0.5"/>
<path d="M12.0286 15.8143C12.0974 16.0208 12.1662 16.2273 12.3039 16.4338C12.8545 17.3974 13.4052 18.361 13.9558 19.2558C14.0935 19.4623 14.0935 19.6 14.0247 19.8065C13.8182 20.2883 13.6117 20.7701 13.4052 21.2519C13.3364 21.3896 13.2675 21.4584 13.1299 21.5273C12.0286 21.8026 10.9273 22.0779 9.82597 22.3532C9.27532 22.4909 9 22.8351 9 23.3857C9 24.5558 9 25.7948 9 26.9649C9 27.5156 9.27532 27.8597 9.75714 27.9974C10.8584 28.2727 11.9597 28.5481 13.061 28.8234C13.1987 28.8234 13.2675 28.961 13.3364 29.0987C13.5429 29.5805 13.6805 30.0623 13.9558 30.5442C14.0247 30.7506 14.0247 30.8883 13.887 31.0948C13.3364 32.0584 12.7857 32.9532 12.2351 33.9169C11.8909 34.4675 11.9597 34.8805 12.3727 35.2935C13.1987 36.1195 14.0247 36.9455 14.8506 37.7714C15.2636 38.1844 15.6766 38.2532 16.2273 37.9091C17.1909 37.3584 18.1545 36.739 19.0494 36.1883C19.187 36.1195 19.3247 36.1195 19.4623 36.1883C19.9442 36.3948 20.426 36.6013 20.9078 36.8078C21.0455 36.8766 21.1143 36.9455 21.1831 37.1519C21.4584 38.2532 21.7338 39.3545 22.0091 40.5247C22.1468 41.0753 22.4909 41.2818 23.0416 41.2818C24.2117 41.2818 25.3818 41.2818 26.6208 41.2818C27.1714 41.2818 27.5156 41.0065 27.6532 40.4558C27.9286 39.3545 28.2039 38.2532 28.4792 37.0831C28.4792 36.9455 28.6169 36.8766 28.6857 36.8078C29.1675 36.6013 29.6493 36.3948 30.2 36.1883C30.3377 36.1195 30.4753 36.1195 30.613 36.1883C31.5766 36.739 32.5403 37.3584 33.4351 37.9091C33.9857 38.2532 34.3299 38.1844 34.8117 37.7714C35.6377 36.9455 36.4636 36.1195 37.2896 35.2935C37.7026 34.8805 37.7714 34.4675 37.4273 33.9857C36.8766 33.0221 36.2571 32.0584 35.7065 31.0948C35.6377 30.9571 35.6377 30.8195 35.7065 30.6818C35.913 30.2 36.1195 29.7182 36.326 29.2364C36.3948 29.0987 36.4636 28.961 36.6013 28.961C37.7714 28.6857 38.8727 28.4104 40.0429 28.1351C40.5935 27.9974 40.8 27.6532 40.8 27.1026C40.8 25.8636 40.8 24.6935 40.8 23.4545C40.8 22.9039 40.5247 22.5597 40.0429 22.4221C38.9416 22.1468 37.7714 21.8714 36.6701 21.5961C36.4636 21.5273 36.3948 21.4584 36.326 21.2519C36.1195 20.7701 35.913 20.2883 35.7065 19.8065C35.6377 19.6688 35.6377 19.5312 35.7065 19.3935C36.2571 18.4299 36.8766 17.4662 37.4273 16.5026C37.7714 15.9519 37.7026 15.6078 37.2896 15.126C36.4636 14.3 35.6377 13.474 34.8805 12.6481C34.4675 12.1662 34.0545 12.1662 33.5039 12.5104C32.5403 13.061 31.5766 13.6805 30.613 14.2312C30.4753 14.3 30.3377 14.3 30.2 14.2312C29.7182 14.0247 29.2364 13.8182 28.7545 13.6117C28.5481 13.5429 28.4792 13.4052 28.4104 13.1987C28.2727 12.0974 27.9974 11.0649 27.7221 9.96364C27.5844 9.20649 27.2403 9 26.4831 9C25.3818 9 24.2117 9 23.1104 9C22.5597 9 22.2156 9.27532 22.0779 9.82597C21.8026 10.9961 21.5273 12.1662 21.2519 13.2675C21.2519 13.4052 21.1143 13.474 20.9766 13.5429C20.4948 13.7494 19.9442 13.9558 19.4623 14.1623C19.3935 14.2312 19.187 14.1623 19.1182 14.1623C18.1545 13.6117 17.1909 12.9922 16.2273 12.4416C15.6766 12.0974 15.3325 12.1662 14.8506 12.6481C14.0247 13.4052 13.2675 14.2312 12.4416 15.0571C12.2351 15.2636 12.0286 15.4701 12.0286 15.8143ZM23.7299 10.9273C24.487 10.9273 25.2442 10.9273 26.0013 10.9273C26.2766 12.0286 26.5519 13.1299 26.8273 14.3C26.9649 14.7818 27.2403 15.126 27.7221 15.2636C28.4104 15.539 29.0987 15.8143 29.787 16.1584C30.2688 16.4338 30.6818 16.4338 31.2325 16.0896C32.1273 15.539 33.0909 14.9883 33.9857 14.4377C34.5364 14.9883 35.087 15.539 35.6377 16.0896C35.087 17.0532 34.5364 18.0169 33.9169 18.9117C33.6416 19.3247 33.6416 19.7377 33.848 20.1507C34.1922 20.9078 34.4675 21.6649 34.7429 22.4221C34.8805 22.9039 35.1558 23.1792 35.6377 23.2481C36.1883 23.3857 36.8078 23.5234 37.3584 23.661C37.9091 23.7987 38.4597 23.9364 39.0104 24.074C39.0104 24.8312 39.0104 25.5883 39.0104 26.3455C37.9091 26.6208 36.8078 26.8961 35.7065 27.1714C35.1558 27.3091 34.8805 27.5844 34.7429 28.0662C34.5364 28.6857 34.3987 29.3052 34.0545 29.8558C33.5727 30.613 33.6416 31.3013 34.1234 31.9896C34.674 32.7468 35.087 33.5727 35.5688 34.3987C35.0182 34.9494 34.4675 35.5 33.9857 36.0506C33.9169 35.9818 33.8481 35.9818 33.7792 35.913C32.8844 35.3623 31.9896 34.8117 31.0948 34.3299C30.7506 34.1234 30.4065 34.0545 30.0623 34.261C29.3052 34.674 28.4792 35.0182 27.5844 35.2935C27.2403 35.4312 26.9649 35.6377 26.8961 36.0506C26.8273 36.3948 26.6896 36.8078 26.6208 37.1519C26.4143 37.9091 26.2766 38.6662 26.0701 39.4234C25.313 39.4234 24.5558 39.4234 23.7987 39.4234C23.5234 38.3909 23.2481 37.2896 23.0416 36.2571C22.9039 35.7065 22.6286 35.4312 22.0779 35.2247C21.3896 35.0182 20.7013 34.7429 20.0818 34.3987C19.5312 34.1234 19.0494 34.1234 18.4987 34.4675C17.6039 35.0182 16.7091 35.5688 15.8831 36.0506C15.3325 35.5 14.7818 34.9494 14.2312 34.3987C14.7818 33.4351 15.3325 32.4714 15.9519 31.5766C16.2273 31.1636 16.2273 30.8195 16.0208 30.3377C15.6766 29.6494 15.4013 28.8922 15.126 28.1351C14.9195 27.6532 14.6442 27.3779 14.1623 27.2403C13.1987 27.0338 12.1662 26.7584 11.2026 26.4831C11.1338 26.4831 11.0649 26.4143 10.9961 26.4143C10.9961 25.6571 10.9961 24.9 10.9961 24.1429C11.0649 24.1429 11.1338 24.074 11.2714 24.074C12.2351 23.7987 13.1987 23.5922 14.1623 23.3169C14.713 23.1792 14.9883 22.9039 15.126 22.3532C15.3325 21.6649 15.6766 20.9078 15.9519 20.2883C16.2273 19.8065 16.2273 19.3935 15.9519 18.9117C15.4013 17.9481 14.8506 17.0532 14.3 16.1584C14.8506 15.6078 15.4013 15.0571 15.8831 14.5065C16.8468 15.0571 17.8104 15.6766 18.7052 16.2273C19.0494 16.4338 19.3935 16.5026 19.8065 16.2961C20.6325 15.8831 21.4584 15.539 22.2844 15.2636C22.6286 15.1948 22.8351 14.9195 22.9727 14.5753C23.0416 14.4377 23.0416 14.2312 23.1104 14.0935C23.2481 12.9922 23.5234 11.9597 23.7299 10.9273Z" fill="#333333"/>
<path d="M24.9 32.7467C20.7013 32.7467 17.3286 29.374 17.3286 25.1753C17.3286 20.9766 20.7013 17.6039 24.9 17.6039C29.0987 17.6039 32.4715 20.9766 32.4715 25.1753C32.4715 29.374 29.0987 32.7467 24.9 32.7467ZM24.9 18.9805C21.4585 18.9805 18.7052 21.8026 18.7052 25.1753C18.7052 28.6169 21.5273 31.3701 24.9 31.3701C28.3416 31.3701 31.0948 28.548 31.0948 25.1753C31.0948 21.7338 28.3416 18.9805 24.9 18.9805Z" fill="#333333"/>
<path d="M24.9001 30.0623C22.2156 30.0623 19.9442 27.8597 19.9442 25.1065C19.9442 22.4221 22.1468 20.1506 24.9001 20.1506C27.6533 20.1506 29.8559 22.3532 29.8559 25.1065C29.7871 27.8597 27.5845 30.0623 24.9001 30.0623ZM24.9001 20.9078C22.5598 20.9078 20.6325 22.835 20.6325 25.1753C20.6325 27.5156 22.5598 29.4428 24.9001 29.4428C27.2403 29.4428 29.1676 27.5156 29.1676 25.1753C29.0988 22.835 27.2403 20.9078 24.9001 20.9078Z" fill="#333333"/>
</svg>
