<svg width="33" height="32" viewBox="0 0 33 32" fill="none" xmlns="http://www.w3.org/2000/svg">
<path d="M12.9174 24.134C19.3056 24.134 24.4844 18.9553 24.4844 12.567C24.4844 6.17873 19.3056 1 12.9174 1C6.52907 1 1.35034 6.17873 1.35034 12.567C1.35034 18.9553 6.52907 24.134 12.9174 24.134Z" stroke="#FBFBFB" stroke-width="1.5" stroke-miterlimit="10"/>
<path d="M12.9173 17.1237C15.4339 17.1237 17.474 15.0836 17.474 12.567C17.474 10.0504 15.4339 8.01031 12.9173 8.01031C10.4007 8.01031 8.3606 10.0504 8.3606 12.567C8.3606 15.0836 10.4007 17.1237 12.9173 17.1237Z" stroke="#FBFBFB" stroke-width="1.5" stroke-miterlimit="10"/>
<path d="M24.4844 20.6288C24.4844 22.3813 23.0824 24.1339 20.9793 24.1339H4.50503C2.75246 24.1339 0.999878 25.536 0.999878 27.6391C0.999878 29.3916 2.40194 31.1442 4.50503 31.1442H24.1339H27.6391C29.3916 31.1442 31.1442 29.7422 31.1442 27.6391V24.1339V20.6288C31.1442 18.8762 29.7421 17.1236 27.6391 17.1236C25.8865 17.1236 24.4844 18.5257 24.4844 20.6288Z" stroke="#FBFBFB" stroke-width="1.5" stroke-miterlimit="10"/>
<path d="M27.9896 17.1239L27.2886 10.8146" stroke="#FBFBFB" stroke-width="1.5" stroke-miterlimit="10"/>
<path d="M27.2884 10.8147C27.8691 10.8147 28.3399 10.3439 28.3399 9.76313C28.3399 9.18237 27.8691 8.71158 27.2884 8.71158C26.7076 8.71158 26.2368 9.18237 26.2368 9.76313C26.2368 10.3439 26.7076 10.8147 27.2884 10.8147Z" stroke="#FBFBFB" stroke-width="1.5" stroke-miterlimit="10"/>
<path d="M27.9894 17.1238L30.7935 11.165" stroke="#FBFBFB" stroke-width="1.5" stroke-miterlimit="10"/>
<path d="M31.1444 11.1651C31.7252 11.1651 32.196 10.6943 32.196 10.1136C32.196 9.5328 31.7252 9.06201 31.1444 9.06201C30.5637 9.06201 30.0929 9.5328 30.0929 10.1136C30.0929 10.6943 30.5637 11.1651 31.1444 11.1651Z" stroke="#FBFBFB" stroke-width="1.5" stroke-miterlimit="10"/>
</svg>
