<svg width="50" height="50" viewBox="0 0 50 50" fill="none" xmlns="http://www.w3.org/2000/svg">
<path d="M20.9175 33.134C27.3058 33.134 32.4845 27.9553 32.4845 21.567C32.4845 15.1787 27.3058 10 20.9175 10C14.5292 10 9.35046 15.1787 9.35046 21.567C9.35046 27.9553 14.5292 33.134 20.9175 33.134Z" stroke="#333333" stroke-width="1.5" stroke-miterlimit="10"/>
<path d="M20.9174 26.1237C23.434 26.1237 25.4741 24.0836 25.4741 21.567C25.4741 19.0504 23.434 17.0103 20.9174 17.0103C18.4008 17.0103 16.3607 19.0504 16.3607 21.567C16.3607 24.0836 18.4008 26.1237 20.9174 26.1237Z" stroke="#333333" stroke-width="1.5" stroke-miterlimit="10"/>
<path d="M32.4845 29.6287C32.4845 31.3813 31.0825 33.1338 28.9794 33.1338H12.5052C10.7526 33.1338 9 34.5359 9 36.639C9 38.3916 10.4021 40.1442 12.5052 40.1442H32.134H35.6392C37.3918 40.1442 39.1443 38.7421 39.1443 36.639V33.1338V29.6287C39.1443 27.8761 37.7423 26.1235 35.6392 26.1235C33.8866 26.1235 32.4845 27.5256 32.4845 29.6287Z" stroke="#333333" stroke-width="1.5" stroke-miterlimit="10"/>
<path d="M35.9897 26.1239L35.2887 19.8146" stroke="#333333" stroke-width="1.5" stroke-miterlimit="10"/>
<path d="M35.2885 19.8146C35.8692 19.8146 36.34 19.3438 36.34 18.7631C36.34 18.1823 35.8692 17.7115 35.2885 17.7115C34.7077 17.7115 34.2369 18.1823 34.2369 18.7631C34.2369 19.3438 34.7077 19.8146 35.2885 19.8146Z" stroke="#333333" stroke-width="1.5" stroke-miterlimit="10"/>
<path d="M35.9895 26.1238L38.7936 20.165" stroke="#333333" stroke-width="1.5" stroke-miterlimit="10"/>
<path d="M39.1446 20.1651C39.7253 20.1651 40.1961 19.6943 40.1961 19.1136C40.1961 18.5328 39.7253 18.062 39.1446 18.062C38.5638 18.062 38.093 18.5328 38.093 19.1136C38.093 19.6943 38.5638 20.1651 39.1446 20.1651Z" stroke="#333333" stroke-width="1.5" stroke-miterlimit="10"/>
<rect x="0.25" y="0.25" width="49.5" height="49.5" stroke="#333333" stroke-width="0.5"/>
</svg>
