<svg width="33" height="32" viewBox="0 0 33 32" fill="none" xmlns="http://www.w3.org/2000/svg">
<path d="M12.9175 24.134C19.3058 24.134 24.4845 18.9553 24.4845 12.567C24.4845 6.17873 19.3058 1 12.9175 1C6.52919 1 1.35046 6.17873 1.35046 12.567C1.35046 18.9553 6.52919 24.134 12.9175 24.134Z" stroke="#333333" stroke-width="1.5" stroke-miterlimit="10"/>
<path d="M12.9174 17.1237C15.434 17.1237 17.4741 15.0836 17.4741 12.567C17.4741 10.0504 15.434 8.01031 12.9174 8.01031C10.4008 8.01031 8.36072 10.0504 8.36072 12.567C8.36072 15.0836 10.4008 17.1237 12.9174 17.1237Z" stroke="#333333" stroke-width="1.5" stroke-miterlimit="10"/>
<path d="M24.4845 20.6288C24.4845 22.3813 23.0825 24.1339 20.9794 24.1339H4.50515C2.75258 24.1339 1 25.536 1 27.6391C1 29.3916 2.40206 31.1442 4.50515 31.1442H24.134H27.6392C29.3918 31.1442 31.1443 29.7422 31.1443 27.6391V24.1339V20.6288C31.1443 18.8762 29.7423 17.1236 27.6392 17.1236C25.8866 17.1236 24.4845 18.5257 24.4845 20.6288Z" stroke="#333333" stroke-width="1.5" stroke-miterlimit="10"/>
<path d="M27.9897 17.1239L27.2887 10.8146" stroke="#333333" stroke-width="1.5" stroke-miterlimit="10"/>
<path d="M27.2885 10.8147C27.8692 10.8147 28.34 10.3439 28.34 9.76313C28.34 9.18237 27.8692 8.71158 27.2885 8.71158C26.7077 8.71158 26.2369 9.18237 26.2369 9.76313C26.2369 10.3439 26.7077 10.8147 27.2885 10.8147Z" stroke="#333333" stroke-width="1.5" stroke-miterlimit="10"/>
<path d="M27.9895 17.1238L30.7936 11.165" stroke="#333333" stroke-width="1.5" stroke-miterlimit="10"/>
<path d="M31.1446 11.1651C31.7253 11.1651 32.1961 10.6943 32.1961 10.1136C32.1961 9.5328 31.7253 9.06201 31.1446 9.06201C30.5638 9.06201 30.093 9.5328 30.093 10.1136C30.093 10.6943 30.5638 11.1651 31.1446 11.1651Z" stroke="#333333" stroke-width="1.5" stroke-miterlimit="10"/>
</svg>
