<svg width="600" height="50" viewBox="0 0 600 50" fill="none" xmlns="http://www.w3.org/2000/svg">
<path d="M360.62 24.3655C360.282 24.3655 360.056 24.0838 360.056 23.7456C360.563 16.025 366.875 10.1078 374.652 10.1078C376.343 10.1078 377.977 10.3896 379.555 10.9531C379.837 11.0658 380.006 11.4039 379.893 11.6857C379.78 11.9675 379.442 12.0802 379.161 12.0238C377.695 11.5167 376.23 11.2349 374.652 11.2349C367.551 11.2349 361.634 16.814 361.183 23.8583C361.183 24.1401 360.902 24.3655 360.62 24.3655Z" fill="#333333" stroke="#333333" stroke-width="2" stroke-miterlimit="10"/>
<path d="M376.681 12.7564C376.455 12.7564 376.286 12.6437 376.174 12.531C376.061 12.3619 376.005 12.1365 376.061 11.9675L376.737 9.48785C376.794 9.26244 376.963 9.09337 377.132 9.03702C377.357 8.98066 377.583 8.98066 377.752 9.09337L381.415 11.5166C381.64 11.6857 381.753 11.9675 381.696 12.2492C381.64 12.531 381.358 12.7001 381.076 12.7001L376.681 12.7564C376.737 12.7564 376.737 12.7564 376.681 12.7564Z" fill="#333333"/>
<path d="M376.681 12.7564C376.455 12.7564 376.286 12.6437 376.174 12.531C376.061 12.3619 376.005 12.1365 376.061 11.9675L376.737 9.48785C376.794 9.26244 376.963 9.09337 377.132 9.03702C377.357 8.98066 377.583 8.98066 377.752 9.09337L381.415 11.5166C381.64 11.6857 381.753 11.9675 381.696 12.2492C381.64 12.531 381.358 12.7001 381.076 12.7001L376.681 12.7564ZM376.681 12.7564C376.737 12.7564 376.737 12.7564 376.681 12.7564Z" stroke="#333333" stroke-width="2" stroke-miterlimit="10"/>
<path d="M410.62 24.3655C410.282 24.3655 410.056 24.0838 410.056 23.7456C410.563 16.025 416.875 10.1078 424.652 10.1078C426.343 10.1078 427.977 10.3896 429.555 10.9531C429.837 11.0658 430.006 11.4039 429.893 11.6857C429.78 11.9675 429.442 12.0802 429.161 12.0238C427.695 11.5167 426.23 11.2349 424.652 11.2349C417.551 11.2349 411.634 16.814 411.183 23.8583C411.183 24.1401 410.902 24.3655 410.62 24.3655Z" fill="#333333" stroke="#333333" stroke-width="2" stroke-miterlimit="10"/>
<path d="M426.681 12.7564C426.455 12.7564 426.286 12.6437 426.174 12.531C426.061 12.3619 426.005 12.1365 426.061 11.9675L426.737 9.48785C426.794 9.26244 426.963 9.09337 427.132 9.03702C427.357 8.98066 427.583 8.98066 427.752 9.09337L431.415 11.5166C431.64 11.6857 431.753 11.9675 431.696 12.2492C431.64 12.531 431.358 12.7001 431.076 12.7001L426.681 12.7564C426.737 12.7564 426.737 12.7564 426.681 12.7564Z" fill="#333333"/>
<path d="M426.681 12.7564C426.455 12.7564 426.286 12.6437 426.174 12.531C426.061 12.3619 426.005 12.1365 426.061 11.9675L426.737 9.48785C426.794 9.26244 426.963 9.09337 427.132 9.03702C427.357 8.98066 427.583 8.98066 427.752 9.09337L431.415 11.5166C431.64 11.6857 431.753 11.9675 431.696 12.2492C431.64 12.531 431.358 12.7001 431.076 12.7001L426.681 12.7564ZM426.681 12.7564C426.737 12.7564 426.737 12.7564 426.681 12.7564Z" stroke="#333333" stroke-width="2" stroke-miterlimit="10"/>
<path d="M459.62 24.3655C459.282 24.3655 459.056 24.0838 459.056 23.7456C459.563 16.025 465.875 10.1078 473.652 10.1078C475.343 10.1078 476.977 10.3896 478.555 10.9531C478.837 11.0658 479.006 11.4039 478.893 11.6857C478.78 11.9675 478.442 12.0802 478.161 12.0238C476.695 11.5167 475.23 11.2349 473.652 11.2349C466.551 11.2349 460.634 16.814 460.183 23.8583C460.183 24.1401 459.902 24.3655 459.62 24.3655Z" fill="#333333" stroke="#333333" stroke-width="2" stroke-miterlimit="10"/>
<path d="M475.681 12.7564C475.455 12.7564 475.286 12.6437 475.174 12.531C475.061 12.3619 475.005 12.1365 475.061 11.9675L475.737 9.48785C475.794 9.26244 475.963 9.09337 476.132 9.03702C476.357 8.98066 476.583 8.98066 476.752 9.09337L480.415 11.5166C480.64 11.6857 480.753 11.9675 480.696 12.2492C480.64 12.531 480.358 12.7001 480.076 12.7001L475.681 12.7564C475.737 12.7564 475.737 12.7564 475.681 12.7564Z" fill="#333333"/>
<path d="M475.681 12.7564C475.455 12.7564 475.286 12.6437 475.174 12.531C475.061 12.3619 475.005 12.1365 475.061 11.9675L475.737 9.48785C475.794 9.26244 475.963 9.09337 476.132 9.03702C476.357 8.98066 476.583 8.98066 476.752 9.09337L480.415 11.5166C480.64 11.6857 480.753 11.9675 480.696 12.2492C480.64 12.531 480.358 12.7001 480.076 12.7001L475.681 12.7564ZM475.681 12.7564C475.737 12.7564 475.737 12.7564 475.681 12.7564Z" stroke="#333333" stroke-width="2" stroke-miterlimit="10"/>
<path d="M433.669 13.2073C433.838 12.9255 434.176 12.8691 434.458 13.0382C440.882 17.3212 442.911 25.718 439.023 32.4806C438.177 33.9458 437.107 35.242 435.867 36.3127C435.641 36.5381 435.247 36.4818 435.078 36.2C434.909 35.9746 434.909 35.6365 435.134 35.411C436.318 34.3966 437.276 33.2132 438.065 31.917C441.615 25.7744 439.699 17.8284 433.838 13.9399C433.556 13.7708 433.5 13.4327 433.669 13.2073Z" fill="#333333" stroke="#333333" stroke-width="2" stroke-miterlimit="10"/>
<path d="M435.641 32.9315C435.754 32.7624 435.923 32.6497 436.149 32.5934C436.374 32.537 436.543 32.6497 436.712 32.7624L438.515 34.5658C438.685 34.7348 438.741 34.9603 438.685 35.1293C438.628 35.3547 438.515 35.5238 438.29 35.6365L434.402 37.6089C434.12 37.7216 433.838 37.6653 433.669 37.4962C433.5 37.2708 433.444 36.989 433.613 36.7073L435.641 32.9315Z" fill="#333333" stroke="#333333" stroke-width="2" stroke-miterlimit="10"/>
<path d="M482.669 13.2073C482.838 12.9255 483.176 12.8691 483.458 13.0382C489.882 17.3212 491.911 25.718 488.023 32.4806C487.177 33.9458 486.107 35.242 484.867 36.3127C484.641 36.5381 484.247 36.4818 484.078 36.2C483.909 35.9746 483.909 35.6365 484.134 35.411C485.318 34.3966 486.276 33.2132 487.065 31.917C490.615 25.7744 488.699 17.8284 482.838 13.9399C482.556 13.7708 482.5 13.4327 482.669 13.2073Z" fill="#333333" stroke="#333333" stroke-width="2" stroke-miterlimit="10"/>
<path d="M484.641 32.9315C484.754 32.7624 484.923 32.6497 485.149 32.5934C485.374 32.537 485.543 32.6497 485.712 32.7624L487.515 34.5658C487.685 34.7348 487.741 34.9603 487.685 35.1293C487.628 35.3547 487.515 35.5238 487.29 35.6365L483.402 37.6089C483.12 37.7216 482.838 37.6653 482.669 37.4962C482.5 37.2708 482.444 36.989 482.613 36.7073L484.641 32.9315Z" fill="#333333" stroke="#333333" stroke-width="2" stroke-miterlimit="10"/>
<path d="M480.753 38.6796C480.922 38.9614 480.809 39.2995 480.528 39.4686C473.652 42.9626 465.312 40.5393 461.367 33.7767C460.522 32.3115 459.902 30.7899 459.62 29.1557C459.564 28.8175 459.789 28.5358 460.127 28.4794C460.409 28.423 460.691 28.6485 460.747 28.9302C461.029 30.4518 461.592 31.8607 462.381 33.2132C465.932 39.2995 473.765 41.61 480.077 38.4542C480.302 38.3415 480.64 38.4542 480.753 38.6796Z" fill="#333333" stroke="#333333" stroke-width="2" stroke-miterlimit="10"/>
<path d="M462.663 30.6773C462.776 30.8463 462.776 31.0717 462.719 31.2408C462.663 31.4099 462.494 31.5789 462.325 31.6353L459.845 32.3115C459.62 32.3679 459.394 32.3115 459.225 32.1988C459.113 32.0298 459 31.8044 459 31.5789L459.225 27.2396C459.225 26.9578 459.451 26.7324 459.733 26.6761C460.014 26.6197 460.296 26.7324 460.465 27.0142L462.663 30.6773C462.663 30.6773 462.663 30.6209 462.663 30.6773Z" fill="#333333"/>
<path d="M462.663 30.6773C462.776 30.8463 462.776 31.0717 462.719 31.2408C462.663 31.4099 462.494 31.5789 462.325 31.6353L459.845 32.3115C459.62 32.3679 459.394 32.3115 459.225 32.1988C459.113 32.0298 459 31.8044 459 31.5789L459.225 27.2396C459.225 26.9578 459.451 26.7324 459.733 26.6761C460.014 26.6197 460.296 26.7324 460.465 27.0142L462.663 30.6773ZM462.663 30.6773C462.663 30.6209 462.663 30.6773 462.663 30.6773Z" stroke="#333333" stroke-width="2" stroke-miterlimit="10"/>
<mask id="path-17-inside-1" fill="white">
<rect x="313" y="22" width="24" height="6" rx="1"/>
</mask>
<rect x="313" y="22" width="24" height="6" rx="1" stroke="#333333" stroke-width="4" mask="url(#path-17-inside-1)"/>
<path d="M273 14.1V22.9C273 22.9552 272.955 23 272.9 23H264.1C264.045 23 264 23.0448 264 23.1V26.9C264 26.9552 264.045 27 264.1 27H272.9C272.955 27 273 27.0448 273 27.1V35.9C273 35.9552 273.045 36 273.1 36H276.9C276.955 36 277 35.9552 277 35.9V27.1C277 27.0448 277.045 27 277.1 27H285.9C285.955 27 286 26.9552 286 26.9V23.1C286 23.0448 285.955 23 285.9 23H277.1C277.045 23 277 22.9552 277 22.9V14.1C277 14.0448 276.955 14 276.9 14H273.1C273.045 14 273 14.0448 273 14.1Z" stroke="#333333" stroke-width="2"/>
<path d="M218.506 33.9949C218.595 35.3379 218.237 36.6809 217.61 37.7553C216.894 38.9193 215.82 39.8146 214.656 40.3518C215.641 39.546 216.357 38.3821 216.625 37.1286C215.73 37.5763 215.014 38.2925 214.477 39.1879C214.566 38.0239 215.103 36.9495 215.82 36.0542C214.298 38.1135 212.238 39.7251 210 40.889C211.253 39.4565 212.328 37.8449 213.044 36.1437C212.149 36.9495 211.343 37.8449 210.448 38.6507C210.985 37.1286 211.433 35.6065 212.328 34.2635C213.223 32.9205 214.656 31.8461 216.267 31.7566" stroke="#333333" stroke-width="1.5" stroke-miterlimit="10"/>
<path d="M219.67 32.0252C225.221 33.01 220.117 37.3972 220.117 37.3972C220.117 37.3972 227.459 36.86 229.429 29.0706" stroke="#333333" stroke-width="1.5" stroke-miterlimit="10"/>
<path d="M240.352 10C216.267 14.2081 218.327 31.9357 218.327 31.9357C218.327 31.9357 236.144 33.995 240.352 10Z" stroke="#333333" stroke-width="1.5" stroke-miterlimit="10"/>
<path d="M218.327 30.5928C217.342 25.0417 212.955 30.1451 212.955 30.1451C212.955 30.1451 213.492 22.8034 221.281 20.8336" stroke="#333333" stroke-width="1.5" stroke-miterlimit="10"/>
<path d="M231.757 21.9079C233.636 21.9079 235.159 20.3847 235.159 18.5057C235.159 16.6266 233.636 15.1034 231.757 15.1034C229.878 15.1034 228.354 16.6266 228.354 18.5057C228.354 20.3847 229.878 21.9079 231.757 21.9079Z" stroke="#333333" stroke-width="1.5" stroke-miterlimit="10"/>
<path d="M231.757 20.1173C232.647 20.1173 233.368 19.3957 233.368 18.5056C233.368 17.6156 232.647 16.894 231.757 16.894C230.867 16.894 230.145 17.6156 230.145 18.5056C230.145 19.3957 230.867 20.1173 231.757 20.1173Z" stroke="#333333" stroke-width="1.5" stroke-miterlimit="10"/>
<path d="M170.917 33.134C177.306 33.134 182.484 27.9553 182.484 21.567C182.484 15.1787 177.306 10 170.917 10C164.529 10 159.35 15.1787 159.35 21.567C159.35 27.9553 164.529 33.134 170.917 33.134Z" stroke="#333333" stroke-width="1.5" stroke-miterlimit="10"/>
<path d="M170.917 26.1237C173.434 26.1237 175.474 24.0836 175.474 21.567C175.474 19.0504 173.434 17.0103 170.917 17.0103C168.401 17.0103 166.361 19.0504 166.361 21.567C166.361 24.0836 168.401 26.1237 170.917 26.1237Z" stroke="#333333" stroke-width="1.5" stroke-miterlimit="10"/>
<path d="M182.485 29.6287C182.485 31.3813 181.082 33.1338 178.979 33.1338H162.505C160.753 33.1338 159 34.5359 159 36.639C159 38.3916 160.402 40.1442 162.505 40.1442H182.134H185.639C187.392 40.1442 189.144 38.7421 189.144 36.639V33.1338V29.6287C189.144 27.8761 187.742 26.1235 185.639 26.1235C183.887 26.1235 182.485 27.5256 182.485 29.6287Z" stroke="#333333" stroke-width="1.5" stroke-miterlimit="10"/>
<path d="M185.99 26.1239L185.289 19.8146" stroke="#333333" stroke-width="1.5" stroke-miterlimit="10"/>
<path d="M185.288 19.8146C185.869 19.8146 186.34 19.3438 186.34 18.7631C186.34 18.1823 185.869 17.7115 185.288 17.7115C184.708 17.7115 184.237 18.1823 184.237 18.7631C184.237 19.3438 184.708 19.8146 185.288 19.8146Z" stroke="#333333" stroke-width="1.5" stroke-miterlimit="10"/>
<path d="M185.99 26.1238L188.794 20.165" stroke="#333333" stroke-width="1.5" stroke-miterlimit="10"/>
<path d="M189.145 20.1651C189.725 20.1651 190.196 19.6943 190.196 19.1136C190.196 18.5328 189.725 18.062 189.145 18.062C188.564 18.062 188.093 18.5328 188.093 19.1136C188.093 19.6943 188.564 20.1651 189.145 20.1651Z" stroke="#333333" stroke-width="1.5" stroke-miterlimit="10"/>
<rect x="114" y="14" width="22" height="22" rx="1" stroke="#333333" stroke-width="2"/>
<rect x="64" y="14" width="7" height="22" rx="1" stroke="#333333" stroke-width="2"/>
<rect x="79" y="14" width="7" height="22" rx="1" stroke="#333333" stroke-width="2"/>
<path d="M18.5 13.7417L38 25L18.5 36.2583L18.5 13.7417Z" stroke="#333333" stroke-width="2"/>
<rect x="0.5" y="0.5" width="599" height="49" rx="4.5" stroke="#333333"/>
<path d="M550.25 0.25H595C597.623 0.25 599.75 2.37665 599.75 5V45C599.75 47.6234 597.623 49.75 595 49.75H550.25V0.25Z" stroke="#333333" stroke-width="0.5"/>
<rect x="200.25" y="0.25" width="49.5" height="49.5" stroke="#333333" stroke-width="0.5"/>
<rect x="400.25" y="0.25" width="49.5" height="49.5" stroke="#333333" stroke-width="0.5"/>
<rect x="100.25" y="0.25" width="49.5" height="49.5" stroke="#333333" stroke-width="0.5"/>
<rect x="300.25" y="0.25" width="49.5" height="49.5" stroke="#333333" stroke-width="0.5"/>
<rect x="500.25" y="0.25" width="49.5" height="49.5" stroke="#333333" stroke-width="0.5"/>
<rect x="50.25" y="0.25" width="49.5" height="49.5" stroke="#333333" stroke-width="0.5"/>
<rect x="250.25" y="0.25" width="49.5" height="49.5" stroke="#333333" stroke-width="0.5"/>
<rect x="450.25" y="0.25" width="49.5" height="49.5" stroke="#333333" stroke-width="0.5"/>
<rect x="150.25" y="0.25" width="49.5" height="49.5" stroke="#333333" stroke-width="0.5"/>
<rect x="350.25" y="0.25" width="49.5" height="49.5" stroke="#333333" stroke-width="0.5"/>
<path d="M5 0.25H49.75V49.75H5C2.37665 49.75 0.25 47.6234 0.25 45V5C0.25 2.37665 2.37665 0.25 5 0.25Z" stroke="#333333" stroke-width="0.5"/>
<path d="M550.5 49V1L597.99 48L597 49H550.5Z" fill="#333333"/>
<path d="M512.029 15.8143C512.097 16.0208 512.166 16.2273 512.304 16.4338C512.855 17.3974 513.405 18.361 513.956 19.2558C514.094 19.4623 514.094 19.6 514.025 19.8065C513.818 20.2883 513.612 20.7701 513.405 21.2519C513.336 21.3896 513.268 21.4584 513.13 21.5273C512.029 21.8026 510.927 22.0779 509.826 22.3532C509.275 22.4909 509 22.8351 509 23.3857C509 24.5558 509 25.7948 509 26.9649C509 27.5156 509.275 27.8597 509.757 27.9974C510.858 28.2727 511.96 28.5481 513.061 28.8234C513.199 28.8234 513.268 28.961 513.336 29.0987C513.543 29.5805 513.681 30.0623 513.956 30.5442C514.025 30.7506 514.025 30.8883 513.887 31.0948C513.336 32.0584 512.786 32.9532 512.235 33.9169C511.891 34.4675 511.96 34.8805 512.373 35.2935C513.199 36.1195 514.025 36.9455 514.851 37.7714C515.264 38.1844 515.677 38.2532 516.227 37.9091C517.191 37.3584 518.155 36.739 519.049 36.1883C519.187 36.1195 519.325 36.1195 519.462 36.1883C519.944 36.3948 520.426 36.6013 520.908 36.8078C521.045 36.8766 521.114 36.9455 521.183 37.1519C521.458 38.2532 521.734 39.3545 522.009 40.5247C522.147 41.0753 522.491 41.2818 523.042 41.2818C524.212 41.2818 525.382 41.2818 526.621 41.2818C527.171 41.2818 527.516 41.0065 527.653 40.4558C527.929 39.3545 528.204 38.2532 528.479 37.0831C528.479 36.9455 528.617 36.8766 528.686 36.8078C529.168 36.6013 529.649 36.3948 530.2 36.1883C530.338 36.1195 530.475 36.1195 530.613 36.1883C531.577 36.739 532.54 37.3584 533.435 37.9091C533.986 38.2532 534.33 38.1844 534.812 37.7714C535.638 36.9455 536.464 36.1195 537.29 35.2935C537.703 34.8805 537.771 34.4675 537.427 33.9857C536.877 33.0221 536.257 32.0584 535.706 31.0948C535.638 30.9571 535.638 30.8195 535.706 30.6818C535.913 30.2 536.119 29.7182 536.326 29.2364C536.395 29.0987 536.464 28.961 536.601 28.961C537.771 28.6857 538.873 28.4104 540.043 28.1351C540.594 27.9974 540.8 27.6532 540.8 27.1026C540.8 25.8636 540.8 24.6935 540.8 23.4545C540.8 22.9039 540.525 22.5597 540.043 22.4221C538.942 22.1468 537.771 21.8714 536.67 21.5961C536.464 21.5273 536.395 21.4584 536.326 21.2519C536.119 20.7701 535.913 20.2883 535.706 19.8065C535.638 19.6688 535.638 19.5312 535.706 19.3935C536.257 18.4299 536.877 17.4662 537.427 16.5026C537.771 15.9519 537.703 15.6078 537.29 15.126C536.464 14.3 535.638 13.474 534.881 12.6481C534.468 12.1662 534.055 12.1662 533.504 12.5104C532.54 13.061 531.577 13.6805 530.613 14.2312C530.475 14.3 530.338 14.3 530.2 14.2312C529.718 14.0247 529.236 13.8182 528.755 13.6117C528.548 13.5429 528.479 13.4052 528.41 13.1987C528.273 12.0974 527.997 11.0649 527.722 9.96364C527.584 9.20649 527.24 9 526.483 9C525.382 9 524.212 9 523.11 9C522.56 9 522.216 9.27532 522.078 9.82597C521.803 10.9961 521.527 12.1662 521.252 13.2675C521.252 13.4052 521.114 13.474 520.977 13.5429C520.495 13.7494 519.944 13.9558 519.462 14.1623C519.394 14.2312 519.187 14.1623 519.118 14.1623C518.155 13.6117 517.191 12.9922 516.227 12.4416C515.677 12.0974 515.332 12.1662 514.851 12.6481C514.025 13.4052 513.268 14.2312 512.442 15.0571C512.235 15.2636 512.029 15.4701 512.029 15.8143ZM523.73 10.9273C524.487 10.9273 525.244 10.9273 526.001 10.9273C526.277 12.0286 526.552 13.1299 526.827 14.3C526.965 14.7818 527.24 15.126 527.722 15.2636C528.41 15.539 529.099 15.8143 529.787 16.1584C530.269 16.4338 530.682 16.4338 531.232 16.0896C532.127 15.539 533.091 14.9883 533.986 14.4377C534.536 14.9883 535.087 15.539 535.638 16.0896C535.087 17.0532 534.536 18.0169 533.917 18.9117C533.642 19.3247 533.642 19.7377 533.848 20.1507C534.192 20.9078 534.468 21.6649 534.743 22.4221C534.881 22.9039 535.156 23.1792 535.638 23.2481C536.188 23.3857 536.808 23.5234 537.358 23.661C537.909 23.7987 538.46 23.9364 539.01 24.074C539.01 24.8312 539.01 25.5883 539.01 26.3455C537.909 26.6208 536.808 26.8961 535.706 27.1714C535.156 27.3091 534.881 27.5844 534.743 28.0662C534.536 28.6857 534.399 29.3052 534.055 29.8558C533.573 30.613 533.642 31.3013 534.123 31.9896C534.674 32.7468 535.087 33.5727 535.569 34.3987C535.018 34.9494 534.468 35.5 533.986 36.0506C533.917 35.9818 533.848 35.9818 533.779 35.913C532.884 35.3623 531.99 34.8117 531.095 34.3299C530.751 34.1234 530.406 34.0545 530.062 34.261C529.305 34.674 528.479 35.0182 527.584 35.2935C527.24 35.4312 526.965 35.6377 526.896 36.0506C526.827 36.3948 526.69 36.8078 526.621 37.1519C526.414 37.9091 526.277 38.6662 526.07 39.4234C525.313 39.4234 524.556 39.4234 523.799 39.4234C523.523 38.3909 523.248 37.2896 523.042 36.2571C522.904 35.7065 522.629 35.4312 522.078 35.2247C521.39 35.0182 520.701 34.7429 520.082 34.3987C519.531 34.1234 519.049 34.1234 518.499 34.4675C517.604 35.0182 516.709 35.5688 515.883 36.0506C515.332 35.5 514.782 34.9494 514.231 34.3987C514.782 33.4351 515.332 32.4714 515.952 31.5766C516.227 31.1636 516.227 30.8195 516.021 30.3377C515.677 29.6494 515.401 28.8922 515.126 28.1351C514.919 27.6532 514.644 27.3779 514.162 27.2403C513.199 27.0338 512.166 26.7584 511.203 26.4831C511.134 26.4831 511.065 26.4143 510.996 26.4143C510.996 25.6571 510.996 24.9 510.996 24.1429C511.065 24.1429 511.134 24.074 511.271 24.074C512.235 23.7987 513.199 23.5922 514.162 23.3169C514.713 23.1792 514.988 22.9039 515.126 22.3532C515.332 21.6649 515.677 20.9078 515.952 20.2883C516.227 19.8065 516.227 19.3935 515.952 18.9117C515.401 17.9481 514.851 17.0532 514.3 16.1584C514.851 15.6078 515.401 15.0571 515.883 14.5065C516.847 15.0571 517.81 15.6766 518.705 16.2273C519.049 16.4338 519.394 16.5026 519.806 16.2961C520.632 15.8831 521.458 15.539 522.284 15.2636C522.629 15.1948 522.835 14.9195 522.973 14.5753C523.042 14.4377 523.042 14.2312 523.11 14.0935C523.248 12.9922 523.523 11.9597 523.73 10.9273Z" fill="#333333"/>
<path d="M524.9 32.7467C520.701 32.7467 517.329 29.374 517.329 25.1753C517.329 20.9766 520.701 17.6039 524.9 17.6039C529.099 17.6039 532.471 20.9766 532.471 25.1753C532.471 29.374 529.099 32.7467 524.9 32.7467ZM524.9 18.9805C521.458 18.9805 518.705 21.8026 518.705 25.1753C518.705 28.6169 521.527 31.3701 524.9 31.3701C528.342 31.3701 531.095 28.548 531.095 25.1753C531.095 21.7338 528.342 18.9805 524.9 18.9805Z" fill="#333333"/>
<path d="M524.9 30.0623C522.216 30.0623 519.944 27.8597 519.944 25.1065C519.944 22.4221 522.147 20.1506 524.9 20.1506C527.653 20.1506 529.856 22.3532 529.856 25.1065C529.787 27.8597 527.584 30.0623 524.9 30.0623ZM524.9 20.9078C522.56 20.9078 520.633 22.835 520.633 25.1753C520.633 27.5156 522.56 29.4428 524.9 29.4428C527.24 29.4428 529.168 27.5156 529.168 25.1753C529.099 22.835 527.24 20.9078 524.9 20.9078Z" fill="#333333"/>
</svg>
